<svg width="400" height="400" viewBox="0 0 400 400" fill="none" xmlns="http://www.w3.org/2000/svg">
<path d="M66.055 33.1006C66.055 51.3831 51.2697 66.2069 33.0275 66.2069C14.7854 66.2069 0 51.3831 0 33.1006C0 14.8181 14.7854 0 33.0275 0C51.2697 0 66.055 14.8181 66.055 33.1006Z" fill="#585858"/>
<path d="M142.384 0H371.378C387.187 0 400 18.2841 400 33.1034C400 51.3875 387.187 66.2069 371.378 66.2069H142.384C126.575 66.2069 113.761 47.9228 113.761 33.1034C113.761 14.8194 126.575 0 142.384 0Z" fill="#585858"/>
<path d="M66.055 201.379C66.055 219.663 51.2697 234.483 33.0275 234.483C14.7854 234.483 0 219.663 0 201.379C0 183.095 14.7854 168.276 33.0275 168.276C51.2697 168.276 66.055 183.095 66.055 201.379Z" fill="#585858"/>
<path d="M142.384 168.276H371.378C387.187 168.276 400 186.56 400 201.379C400 219.663 387.187 234.483 371.378 234.483H142.384C126.575 234.483 113.761 216.199 113.761 201.379C113.761 183.095 126.575 168.276 142.384 168.276Z" fill="#585858"/>
<path d="M66.055 366.899C66.055 385.182 51.2697 400 33.0275 400C14.7854 400 0 385.182 0 366.899C0 348.617 14.7854 333.793 33.0275 333.793C51.2697 333.793 66.055 348.617 66.055 366.899Z" fill="#585858"/>
<path d="M142.384 333.793H371.378C387.187 333.793 400 352.077 400 366.897C400 385.181 387.187 400 371.378 400H142.384C126.575 400 113.761 381.716 113.761 366.897C113.761 348.612 126.575 333.793 142.384 333.793Z" fill="#585858"/>
</svg>
