<?xml version="1.0" encoding="UTF-8"?>
<svg width="700pt" height="700pt" version="1.1" viewBox="0 0 700 700" xmlns="http://www.w3.org/2000/svg">
<style type="text/css">
   
    .fil0 {fill:#001aff}
   
  </style>
 <path class="fil0" d="m350.04 0.019531c74.977 0 136.19 58.941 139.83 133.01l0.17188 6.9883v70h52.5c27.289 0 49.715 20.82 52.258 47.445l0.24219 5.0547v245c0 28.996-23.504 52.5-52.5 52.5h-385c-28.996 0-52.5-23.504-52.5-52.5v-245c0-28.996 23.504-52.5 52.5-52.5h52.5v-70c0-77.32 62.68-140 140-140zm192.5 245h-385c-9.6641 0-17.5 7.8359-17.5 17.5v245c0 9.6641 7.8359 17.5 17.5 17.5h385c9.6641 0 17.5-7.8359 17.5-17.5v-245c0-9.6641-7.8359-17.5-17.5-17.5zm-192.5 70c38.66 0 70 31.34 70 70 0 38.66-31.34 70-70 70s-70-31.34-70-70c0-38.66 31.34-70 70-70zm0 35c-19.328 0-35 15.672-35 35 0 19.332 15.672 35 35 35s35-15.668 35-35c0-19.328-15.672-35-35-35zm0-315c-55.918 0-101.63 43.715-104.82 98.832l-0.17969 6.168v70h210v-70c0-57.988-47.012-105-105-105z"/>
</svg>
