<svg xmlns="http://www.w3.org/2000/svg" xmlns:xlink="http://www.w3.org/1999/xlink" version="1.1" x="0px" y="0px" viewBox="0 0 24 30" style="enable-background:new 0 0 24 24;" xml:space="preserve"><path d="M21.2328205,19.8851967l-5.0848122-5.0848141c2.5814247-3.3266487,1.9773006-8.116087-1.3493481-10.6975117  S6.6825724,2.1255698,4.1011481,5.4522181S2.1238472,13.568306,5.4504957,16.1497307  c2.7519855,2.1354942,6.601367,2.1342716,9.3519945-0.0029736l5.0844307,5.0843391  c0.3781261,0.3651924,0.9807072,0.3547096,1.3458996-0.0234165C21.5890598,20.8388233,21.5890598,20.2540531,21.2328205,19.8851967z   M6.0991707,14.1741686c-2.230484-2.2301054-2.2307904-5.8461285-0.0006843-8.0766125s5.846128-2.2307899,8.0766125-0.0006843  s2.2307911,5.8461285,0.0006838,8.0766125c-1.0710249,1.071207-2.5237474,1.6730337-4.0385351,1.6730633  C8.6228828,15.8457441,7.1706681,15.2443056,6.0991707,14.1741686z"/><text x="0" y="39" fill="#000000" font-size="5px" font-weight="bold" font-family="'Helvetica Neue', Helvetica, Arial-Unicode, Arial, Sans-serif">Created by Febrian Hidayat</text><text x="0" y="44" fill="#000000" font-size="5px" font-weight="bold" font-family="'Helvetica Neue', Helvetica, Arial-Unicode, Arial, Sans-serif">from the Noun Project</text></svg>