<svg width="400" height="400" viewBox="0 0 400 400" fill="none" xmlns="http://www.w3.org/2000/svg">
<path d="M15.5754 173.96H158.389C166.978 173.96 173.965 166.973 173.965 158.384V15.5787C173.965 6.99031 166.978 0.00326538 158.389 0.00326538H15.5754C6.98704 0.00326538 0 6.99023 0 15.5787V158.392C0 166.974 6.98696 173.965 15.5754 173.965V173.96Z" fill="#FF4D00"/>
<path d="M15.5754 399.995H158.389C166.978 399.995 173.965 393.008 173.965 384.42V241.614C173.965 233.026 166.978 226.039 158.389 226.039L15.5754 226.036C6.98704 226.036 0 233.022 0 241.611V384.425C0 393.01 6.98696 399.997 15.5754 399.997V399.995Z" fill="#FF4D00"/>
<path d="M226.033 15.5754V158.389C226.033 166.978 233.02 173.965 241.609 173.965H384.422C393.011 173.965 399.998 166.978 399.998 158.389V15.5754C399.998 6.98705 393.011 0 384.422 0H241.609C233.02 0 226.033 6.98696 226.033 15.5754Z" fill="#FF4D00"/>
<path d="M241.611 399.995H384.425C393.013 399.995 400 393.008 400 384.42V241.614C400 233.026 393.013 226.039 384.425 226.039L241.611 226.036C233.022 226.036 226.035 233.022 226.035 241.611V384.425C226.035 393.01 233.022 399.997 241.611 399.997V399.995Z" fill="#FF4D00"/>
</svg>
