<?xml version="1.0" encoding="UTF-8"?>
<svg width="700pt" height="700pt" version="1.1" viewBox="0 0 700 700" xmlns="http://www.w3.org/2000/svg" xmlns:xlink="http://www.w3.org/1999/xlink">
 <defs>
 <style type="text/css">
   
    .fil0 {fill:#585858}
   
  </style>
 </defs>
 <g>
  <path class="fil0" d="m125.54 248.31h173.82c10.453 0 18.957-8.5039 18.957-18.957v-173.81c0-10.453-8.5039-18.957-18.957-18.957h-173.82c-10.453 0-18.957 8.5039-18.957 18.957v173.82c0 10.445 8.5039 18.953 18.957 18.953z"/>
  <path class="fil0" d="m125.54 523.42h173.82c10.453 0 18.957-8.5039 18.957-18.957v-173.81c0-10.453-8.5039-18.957-18.957-18.957l-173.82-0.003906c-10.453 0-18.957 8.5039-18.957 18.957v173.82c0 10.449 8.5039 18.953 18.957 18.953z"/>
  <path class="fil0" d="m381.69 55.539v173.82c0 10.453 8.5039 18.957 18.957 18.957h173.82c10.453 0 18.957-8.5039 18.957-18.957v-173.82c0-10.453-8.5039-18.957-18.957-18.957h-173.82c-10.453 0-18.957 8.5039-18.957 18.957z"/>
  <path class="fil0" d="m400.65 523.42h173.82c10.453 0 18.957-8.5039 18.957-18.957v-173.81c0-10.453-8.5039-18.957-18.957-18.957l-173.82-0.003906c-10.453 0-18.957 8.5039-18.957 18.957v173.82c0 10.449 8.5039 18.953 18.957 18.953z"/>
 </g>
</svg>
