<svg width="301" height="301" viewBox="0 0 301 301" fill="none" xmlns="http://www.w3.org/2000/svg">
<rect width="301" height="301" rx="150.5" fill="#ABCEEC"/>
<path d="M142.248 41.3521C123.553 44.7327 106.812 58.4241 100.339 75.6088C97.2139 83.8913 96.6559 87.1029 96.6001 96.5685C96.6001 106.936 97.6604 111.669 101.678 120.176C104.803 126.881 108.096 131.501 113.006 136.291C117.75 140.967 121.098 143.39 126.455 146.094C134.937 150.433 141.857 152.067 151.567 152.067C161.277 152.067 168.196 150.433 176.678 146.094C182.036 143.39 185.384 140.967 190.127 136.291C195.038 131.501 198.33 126.881 201.455 120.176C205.473 111.669 206.533 106.936 206.533 96.5685C206.478 87.1029 205.92 83.8913 202.795 75.5525C200.953 70.707 196.042 62.8753 192.08 58.4241C185.998 51.6629 176.009 45.5779 166.355 42.7044C162.169 41.4648 159.937 41.1831 153.241 41.0141C148.777 40.9577 143.866 41.0704 142.248 41.3521Z" fill="#FFD6B0"/>
<path d="M116.356 159.79C95.3142 169.035 78.6029 186.918 70.8302 208.565C67.2769 218.585 66 226.724 66 240.177V249.533H151H236L235.778 237.741C235.556 228.717 235.223 224.62 234.279 220.136C228.838 193.395 210.295 170.475 185.311 159.79C181.98 158.35 180.037 157.741 179.592 158.129C178.315 159.181 167.267 162.669 162.715 163.444C160.105 163.887 154.831 164.274 150.944 164.274C147.058 164.274 141.784 163.887 139.174 163.444C134.511 162.669 123.407 159.125 122.408 158.129C121.686 157.465 121.908 157.409 116.356 159.79Z" fill="#F16622"/>
</svg>
