<?xml version="1.0" encoding="UTF-8"?>
<svg width="30px" height="18px" viewBox="0 0 30 18" version="1.1" xmlns="http://www.w3.org/2000/svg" xmlns:xlink="http://www.w3.org/1999/xlink">
    <title>sort</title>
    <g id="VD" stroke="none" stroke-width="1" fill="none" fill-rule="evenodd">
        <g id="Dashboard" transform="translate(-665.000000, -917.000000)" fill="#000000">
            <g id="sort" transform="translate(665.000000, 917.000000)">
                <path d="M5.675,0.0621337891 C5.975,0.0621337891 6.2,0.2 6.2,0.6 L6.2,16.1 L10.3,12 C10.4,11.9 10.6,11.8 10.7,11.8 C10.9,11.8 11,11.9 11.1,12 C11.2,12.1 11.3,12.3 11.3,12.4 C11.3,12.6 11.2,12.7 11.1,12.8 L6,17.8 C5.9,17.9 5.8,18 5.6,18 C5.5,18 5.3,17.9 5.2,17.8 L0.2,12.8 C1.13520304e-14,12.6 1.13520304e-14,12.2 0.2,12 C0.3,11.9 0.5,11.8 0.6,11.8 C0.8,11.8 0.9,11.9 1,12 L5.1,16.1 L5.1,0.6 C5.1,0.2 5.375,0.0621337891 5.675,0.0621337891 Z M16,0.149584488 L21,5.13573407 C21.2,5.33518006 21.2,5.73407202 21,5.93351801 C20.8,6.13296399 20.4,6.13296399 20.2,5.93351801 L16,1.94459834 L16,17.401662 C16,17.700831 15.8,18 15.5,18 C15.2,18 14.9,17.800554 14.9,17.401662 L14.9,1.94459834 L10.8,6.033241 C10.6222222,6.21052632 10.2864198,6.23022468 10.0735254,6.0923361 L10,6.033241 C9.9,5.93351801 9.9,5.83379501 9.9,5.63434903 C9.9,5.43490305 10,5.33518006 10.1,5.23545706 L15.2,0.149584488 C15.4,-0.0498614958 15.8,-0.0498614958 16,0.149584488 Z M29.3573506,6.2 C29.5530332,6.2 30.0422397,6.6 29.8465571,7.1 C29.5530332,7.4 27.1070008,10.7 27.0091595,10.9 C26.8134769,11.1 26.4221117,11.5 25.9329053,10.9 C25.4436988,10.3 23.6825554,7.8 23.0955077,7.1 C22.7041425,6.8 22.8998251,6.2 23.4868728,6.2 L29.3573506,6.2 L29.3573506,6.2 Z" id="Fill"></path>
            </g>
        </g>
    </g>
</svg>