<?xml version="1.0" encoding="UTF-8"?>
<svg width="20px" height="20px" viewBox="0 0 20 20" version="1.1" xmlns="http://www.w3.org/2000/svg" xmlns:xlink="http://www.w3.org/1999/xlink">
    <title>close_page</title>
    <g id="VD" stroke="none" stroke-width="1" fill="none" fill-rule="evenodd">
        <g id="Dashboard" transform="translate(-914.000000, -552.000000)" fill="#000000">
            <g id="close_page" transform="translate(924.000000, 562.000000) rotate(45.000000) translate(-924.000000, -562.000000) translate(917.000000, 555.000000)">
                <path d="M7,0 C3.15,0 0,3.15 0,7 C0,10.85 3.15,14 7,14 C10.85,14 14,10.85 14,7 C14,3.15 10.85,0 7,0 Z M10.29,9.31 C10.43,9.45 10.5,9.59 10.5,9.8 C10.5,10.01 10.43,10.15 10.29,10.29 C10.15,10.43 10.01,10.5 9.8,10.5 C9.59,10.5 9.45,10.43 9.31,10.29 L7,7.98 L4.69,10.29 C4.55,10.43 4.41,10.5 4.2,10.5 C3.99,10.5 3.85,10.43 3.71,10.29 C3.57,10.15 3.5,10.01 3.5,9.8 C3.5,9.59 3.57,9.45 3.71,9.31 L6.02,7 L3.71,4.69 C3.43,4.41 3.43,3.99 3.71,3.71 C3.85,3.57 3.99,3.5 4.2,3.5 C4.41,3.5 4.55,3.57 4.69,3.71 L7,6.02 L9.31,3.71 C9.45,3.57 9.59,3.5 9.8,3.5 C10.01,3.5 10.15,3.57 10.29,3.71 C10.43,3.85 10.5,3.99 10.5,4.2 C10.5,4.41 10.43,4.55 10.29,4.69 L7.98,7 L10.29,9.31 Z" id="Fill"></path>
            </g>
        </g>
    </g>
</svg>