<?xml version="1.0" encoding="UTF-8"?>
<svg width="21px" height="19px" viewBox="0 0 21 19" version="1.1" xmlns="http://www.w3.org/2000/svg" xmlns:xlink="http://www.w3.org/1999/xlink">
    <title>admin_case</title>
    <g id="Prototype" stroke="none" stroke-width="1" fill="none" fill-rule="evenodd">
        <g id="Create_Case" transform="translate(-839.000000, -245.000000)">
            <g id="admin_case" transform="translate(839.000000, 245.000000)">
                <g id="CreateCase_" transform="translate(0.000000, 0.000000)" fill-rule="nonzero">
                    <path d="M13.3214844,8.34354784 L13.3214844,9.45491853 C13.3214844,9.95968098 12.9174805,10.3703402 12.4208985,10.3703402 L11.0040039,10.3703402 C10.5074219,10.3703402 10.103418,9.95968098 10.103418,9.45491853 L10.103418,8.34354784 L5.83408203,8.34354784 L5.83408203,9.45491853 C5.83408203,9.95968098 5.43007813,10.3703402 4.93349611,10.3703402 L3.51660155,10.3703402 C3.02001952,10.3703402 2.61601562,9.95968098 2.61601562,9.45491853 L2.61601562,8.34354784 L7.99360578e-15,8.34354784 L7.99360578e-15,13.8876955 C7.99360578e-15,14.5121715 0.499609376,15.0204082 1.1140625,15.0204082 L14.8859375,15.0204082 C15.5003906,15.0204082 16,14.5121715 16,13.8876955 L16,8.34354784 L13.3214844,8.34354784 Z M12.3839844,6.94907339 L11.040918,6.94907339 L11.040918,9.41739638 L12.3839844,9.41739638 L12.3839844,6.94907339 Z M14.8859375,2.98542275 L1.1140625,2.98542275 C0.499609376,2.98542275 0,3.49326237 0,4.11783763 L0,7.39060403 L2.61601562,7.39060403 L2.61601562,6.91165048 C2.61601562,6.40688805 3.02001952,5.99612961 3.51660155,5.99612961 L4.93349611,5.99612961 C5.43007813,5.99612961 5.83408203,6.40688805 5.83408203,6.91165048 L5.83408203,7.39060403 L10.103418,7.39060403 L10.103418,6.91165048 C10.103418,6.40688805 10.5074219,5.99612961 11.0040039,5.99612961 L12.4208985,5.99612961 C12.9174805,5.99612961 13.3214844,6.40688805 13.3214844,6.91165048 L13.3214844,7.39060403 L16,7.39060403 L16,4.11783763 C16,3.49326237 15.5003906,2.98542275 14.8859375,2.98542275 Z M3.55351563,6.94907339 L3.55351563,9.41739638 L4.89658203,9.41739638 L4.89658203,6.94907339 L3.55351563,6.94907339 Z" id="Shape" fill="#FF6710"></path>
                    <polygon id="+" fill="#FFFFFF" points="8.24052061 11.5702112 9.21979168 11.5702112 9.21979168 12.1681487 8.24052061 12.1681487 8.24052061 13.3343962 7.63234176 13.3343962 7.63234176 12.1681487 6.64791667 12.1681487 6.64791667 11.5702112 7.63234176 11.5702112 7.63234176 10.4793793 8.24052061 10.4793793"></polygon>
                    <path d="M4.95981784,1.95918367 L4.95981784,1.21934366 C4.95981784,1.07720545 5.07361952,0.961611698 5.21367563,0.961611698 L10.6948958,0.961611698 C10.8348543,0.961611698 10.9487536,1.07720545 10.9487536,1.21934366 L10.9487536,1.95918367 L11.8857143,1.95918367 L11.8857143,1.21934366 C11.8857143,0.546916653 11.3515491,0 10.6948958,0 L5.21367563,0 C4.55702235,0 4.02285715,0.547117001 4.02285715,1.21934366 L4.02285715,1.95918367 L4.95981784,1.95918367 Z" id="Path" fill="#FF6710"></path>
                </g>
                <circle id="Oval" fill="#4996F3" cx="15.5" cy="13.5" r="5.5"></circle>
                <g id="user-and-user-group" transform="translate(12.000000, 11.000000)" fill="#FFFFFF" fill-rule="nonzero">
                    <path d="M3.60688291,2.01136561 C4.16360984,2.01136561 4.61491248,1.56114609 4.61491248,1.00586332 C4.61491248,0.450219514 4.16360984,3.20669812e-16 3.60688291,3.20669812e-16 C3.05015597,3.20669812e-16 2.59885333,0.450219514 2.59885333,1.00586332 C2.59885333,1.56114609 3.05015597,2.01136561 3.60688291,2.01136561" id="Path"></path>
                    <path d="M1.71531107,3.18861562 L0.943041996,3.18861562 C0.421336145,3.18861562 0,3.60995176 0,4.12985241 L0,4.9999639 L2.65835307,4.9999639 L2.65835307,4.12985241 C2.65835307,3.60995176 2.23557276,3.18861562 1.71531107,3.18861562" id="Path"></path>
                    <path d="M1.32921264,2.82724857 C1.72816417,2.82724857 2.05201895,2.50411588 2.05201895,2.10624747 C2.05201895,1.70765698 1.72816417,1.38488533 1.32921264,1.38488533 C0.930261106,1.38488533 0.606406331,1.70765698 0.606406331,2.10624747 C0.606406331,2.50411588 0.930261106,2.82724857 1.32921264,2.82724857" id="Path"></path>
                    <path d="M5.08986338,2.90162325 C4.86204581,2.64022876 4.53349749,2.4734273 4.15043181,2.4734273 L3.07380423,2.4734273 C2.68929438,2.4734273 2.36074606,2.6405898 2.13365057,2.90270637 C2.64705245,3.07745075 3.01964791,3.55871989 3.01964791,4.12988851 L3.01964791,5 L4.20133874,5 L4.20133874,4.12988851 C4.20133874,3.55763676 4.57501733,3.07600659 5.08986338,2.90162325" id="Path"></path>
                    <path d="M6.27769193,3.18861562 L5.50542285,3.18861562 C4.983717,3.18861562 4.56238086,3.60995176 4.56238086,4.12985241 L4.56238086,4.9999639 L7.22073393,4.9999639 L7.22073393,4.12985241 C7.22073393,3.60995176 6.79795361,3.18861562 6.27769193,3.18861562" id="Path"></path>
                    <path d="M5.8916296,2.82724857 C6.29058113,2.82724857 6.61443591,2.50411588 6.61443591,2.10624747 C6.61443591,1.70765698 6.29058113,1.38488533 5.8916296,1.38488533 C5.49267807,1.38488533 5.16882329,1.70765698 5.16882329,2.10624747 C5.16882329,2.50411588 5.49267807,2.82724857 5.8916296,2.82724857" id="Path"></path>
                </g>
            </g>
        </g>
    </g>
</svg>