<?xml version="1.0" encoding="UTF-8"?>
<svg width="20px" height="18px" viewBox="0 0 20 18" version="1.1" xmlns="http://www.w3.org/2000/svg" xmlns:xlink="http://www.w3.org/1999/xlink">
    <title>Notification</title>
    <g id="VD" stroke="none" stroke-width="1" fill="none" fill-rule="evenodd">
        <g id="Dashboard_DisruptionMessage" transform="translate(-146.000000, -88.000000)" fill-rule="nonzero">
            <g id="Group-4" transform="translate(129.000000, 72.000000)">
                <g id="alert-(1)" transform="translate(17.000000, 16.000000)">
                    <path d="M9.7,0.9 C10,0.4 10.4,0.4 10.7,0.9 L19.5,17.1 C19.8,17.6 19.5,18 19,18 L1,17.9 C0.5,17.9 0.2,17.5 0.5,17 L9.7,0.9 Z" id="Path" fill="#FDD204"></path>
                    <path d="M10,12.5 C9.6,12.5 9.3,12.2 9.3,11.9 L9.3,5.9 C9.3,5.5 9.6,5.3 10,5.3 C10.4,5.3 10.7,5.6 10.7,5.9 L10.7,11.8 C10.7,12.2 10.4,12.5 10,12.5 Z M10,6 L10,6 L10,6 L10,5.7 L10,6 Z" id="Shape" fill="#000000"></path>
                    <path d="M10,15.7 C9.4,15.7 9,15.3 9,14.7 C9,14.1 9.4,13.7 10,13.7 C10.6,13.7 11,14.1 11,14.7 C11,15.3 10.6,15.7 10,15.7 Z" id="Path" fill="#000000"></path>
                </g>
            </g>
        </g>
    </g>
</svg>