<?xml version="1.0" encoding="UTF-8"?>
<svg width="28px" height="21px" viewBox="0 0 28 21" version="1.1" xmlns="http://www.w3.org/2000/svg" xmlns:xlink="http://www.w3.org/1999/xlink">
    <title>Group</title>
    <g id="VD" stroke="none" stroke-width="1" fill="none" fill-rule="evenodd">
        <g id="Dashboard" transform="translate(-853.000000, -217.000000)" fill="#FF6710">
            <g id="Group-12" transform="translate(843.000000, 202.000000)">
                <g id="Group" transform="translate(10.000000, 15.000000)">
                    <path d="M26.7626508,0 L11.0673837,0 C10.3855205,0 9.83067111,0.549990984 9.83067111,1.22619906 L9.83067111,4.42327804 L1.23734922,4.42327804 C0.554849418,4.42327804 0,4.97326902 0,5.6494771 L0,15.436035 C0,16.1119275 0.554849418,16.6619185 1.23734922,16.6619185 L2.04654441,16.6619185 L2.04654441,20.5266859 C2.04654441,20.7179048 2.16273491,20.8905067 2.34131811,20.9640281 C2.40052752,20.9883249 2.46260189,21 2.52403961,21 C2.64818836,21 2.7701088,20.9520375 2.86178788,20.8614767 L7.09908025,16.6619185 L16.933253,16.6619185 C17.6151161,16.6619185 18.1699656,16.1119275 18.1699656,15.436035 L18.1699656,12.2386405 L22.297434,12.2386405 L26.0594595,16.1684097 C26.1514569,16.2646502 26.2775157,16.3160837 26.4058027,16.3160837 C26.4656488,16.3160837 26.5254948,16.3050397 26.5827943,16.2826361 C26.7642424,16.2106924 26.8832979,16.0368283 26.8832979,15.8427696 L26.8832979,12.2329607 C27.5091349,12.1730076 28,11.64826 28,11.0127569 L28,1.22619906 C27.9996817,0.549990984 27.4445139,0 26.7626508,0 Z M17.2146568,15.436035 C17.2146568,15.5900198 17.0885981,15.7152903 16.9329347,15.7152903 L6.90107891,15.7152903 C6.77470185,15.7152903 6.65309974,15.7651461 6.56333064,15.8538136 L3.00153481,19.3837901 L3.00153481,16.1882889 C3.00153481,15.9270195 2.78761696,15.7149748 2.52403961,15.7149748 L1.23734922,15.7149748 C1.08168579,15.7149748 0.954990393,15.5900198 0.954990393,15.4357194 L0.954990393,5.64916156 C0.954990393,5.4951767 1.08136746,5.3695907 1.23734922,5.3695907 L10.3081663,5.3695907 L16.9329347,5.3695907 C17.0882798,5.3695907 17.2146568,5.49486116 17.2146568,5.64916156 L17.2146568,11.7653264 L17.2146568,15.436035 Z M27.0446913,11.0124414 C27.0446913,11.1664263 26.9183142,11.2920123 26.7626508,11.2920123 L26.4054844,11.2920123 C26.141907,11.2920123 25.9279892,11.504057 25.9279892,11.7653264 L25.9279892,14.6563289 L22.8484635,11.4396863 C22.7583761,11.345339 22.632954,11.2920123 22.5021203,11.2920123 L18.1696472,11.2920123 L18.1696472,5.64916156 C18.1696472,4.97295348 17.6147978,4.4229625 16.9329347,4.4229625 L10.7856615,4.4229625 L10.7856615,1.22619906 C10.7856615,1.07221421 10.9117202,0.946628201 11.0673837,0.946628201 L26.7626508,0.946628201 C26.9179959,0.946628201 27.0446913,1.07189867 27.0446913,1.22619906 L27.0446913,11.0124414 L27.0446913,11.0124414 Z" id="Shape" fill-rule="nonzero"></path>
                    <text id="?" font-family="Roboto-Regular, Roboto" font-size="11" font-weight="normal">
                        <tspan x="7" y="14">?</tspan>
                    </text>
                    <path d="M24.4967742,3 L12.5032258,3 C12.2254452,3 12,3.22366667 12,3.5 C12,3.77633333 12.2254452,4 12.5032258,4 L24.4967742,4 C24.7745548,4 25,3.77633333 25,3.5 C25,3.22366667 24.7745548,3 24.4967742,3 Z" id="Path" fill-rule="nonzero"></path>
                    <path d="M22.2600027,6 L17.9399973,6 C17.7523188,6 17.6,6.22366667 17.6,6.5 C17.6,6.77633333 17.7523188,7 17.9399973,7 L22.2600027,7 C22.4476812,7 22.6,6.77633333 22.6,6.5 C22.6,6.22366667 22.4476812,6 22.2600027,6 Z" id="Path" fill-rule="nonzero"></path>
                    <path d="M24.496804,9 L18.103196,9 C17.8254318,9 17.6,9.22366667 17.6,9.5 C17.6,9.77633333 17.8254318,10 18.103196,10 L24.496804,10 C24.7745682,10 25,9.77633333 25,9.5 C25,9.22366667 24.7745682,9 24.496804,9 Z" id="Path" fill-rule="nonzero"></path>
                </g>
            </g>
        </g>
    </g>
</svg>