<?xml version="1.0" encoding="UTF-8"?>
<svg width="26px" height="28px" viewBox="0 0 26 28" version="1.1" xmlns="http://www.w3.org/2000/svg" xmlns:xlink="http://www.w3.org/1999/xlink">
    <title>ASk_EXP_</title>
    <g id="VD" stroke="none" stroke-width="1" fill="none" fill-rule="evenodd">
        <g id="Dashboard" transform="translate(-463.000000, -213.000000)" fill-rule="nonzero">
            <g id="Group-10" transform="translate(453.000000, 202.000000)">
                <g id="ASk_EXP_" transform="translate(10.000000, 11.000000)">
                    <circle id="Oval" fill="#FF6710" cx="13.3155806" cy="10.3870968" r="6.32258065"></circle>
                    <g id="Group">
                        <path d="M14.4455161,6.77419353 L12.1874516,6.77419353 C11.3158387,6.77419353 10.6068065,7.48322582 10.6068065,8.35483871 L10.6068065,9.48387095 L11.5100322,9.48387095 L11.5100322,8.35483871 C11.5100322,7.98135483 11.8139678,7.67741935 12.1874516,7.67741935 L14.4455161,7.67741935 C14.819,7.67741935 15.1229355,7.98135483 15.1229355,8.35483871 L15.1229355,9.70967741 C15.1229355,10.0831613 14.819,10.3870968 14.4455161,10.3870968 C13.5739032,10.3870968 12.8648709,11.0961291 12.8648709,11.9677419 L12.8648709,12.6451613 L13.7680968,12.6451613 L13.7680968,11.9677419 C13.7680968,11.5942581 14.0720322,11.2903226 14.4455161,11.2903226 C15.3171291,11.2903226 16.0261613,10.5812903 16.0261613,9.70967741 L16.0261613,8.35483871 C16.0261613,7.48322582 15.3171291,6.77419353 14.4455161,6.77419353 Z" id="Path" fill="#FFFFFF"></path>
                        <rect id="Rectangle" fill="#FFFFFF" x="12.8639678" y="13.5483871" width="1" height="1"></rect>
                        <path d="M22.3487419,0 L22.3487419,0.903225806 L24.3769355,0.903225806 L21.3204194,3.79851613 C19.4394516,1.52193548 16.6123548,0.0496774194 13.4555806,0.00948387095 C13.4113226,0.00903225806 13.3679678,0.00858064517 13.3241613,0.00858064517 C10.1624194,0.00858064517 7.26441935,1.47451613 5.33287095,3.81793548 L2.25603226,0.903225806 L4.28422581,0.903225806 L4.28422581,0 L0.671322582,0 L0.671322582,3.61290322 L1.57454839,3.61290322 L1.57454839,1.50116129 L4.78551612,4.54322581 C4.01822581,5.65735483 3.44919355,6.92864517 3.15429032,8.31735483 C2.90093548,9.51051612 2.86932258,10.7407097 3.05990322,11.9772258 L0.00609677418,17.4385806 L3.38145161,18.4050322 L3.38912903,23.9354839 L7.90480647,23.9354839 L7.90480647,28 L8.80803224,28 L8.80803224,23.0322581 L4.29145161,23.0322581 L4.28377419,17.724 L1.35145161,16.884 L4.00287097,12.1420645 L3.97622581,11.9849032 C3.77706452,10.808 3.79738709,9.63741935 4.03809678,8.50522582 C4.29732258,7.28451612 4.78822582,6.1627097 5.44803224,5.17096776 L8.45953761,7.97518279 L9.08050537,7.31989249 L5.98725806,4.43845161 C7.7742903,2.23593548 10.4857742,0.865741935 13.4433871,0.912709677 C16.3477097,0.949741935 18.9471935,2.31406452 20.6642258,4.41993548 L17.5515592,7.31944085 L18.1725269,7.97473119 L21.2048065,5.15109677 C22.2114516,6.65632259 22.7994516,8.46006453 22.7994516,10.3916129 L22.8003548,12.0395484 C22.8030645,15.6574194 21.0219032,19.7687691 18.0353871,21.824511 L17.8398387,21.9590917 L17.8398387,28 L18.7430645,28 L18.7430645,22.4310271 C21.8564839,20.1946401 23.7058387,15.8746452 23.7031291,12.0386452 L23.7026774,10.3911613 C23.7026774,8.2207097 23.023,6.19793547 21.8677742,4.52425806 L25.0584194,1.50161291 L25.0584194,3.61290322 L25.9616452,3.61290322 L25.9616452,0 L22.3487419,0 Z" id="Path" fill="#FF6710"></path>
                    </g>
                </g>
            </g>
        </g>
    </g>
</svg>