<?xml version="1.0" encoding="UTF-8"?>
<svg width="16px" height="16px" viewBox="0 0 16 16" version="1.1" xmlns="http://www.w3.org/2000/svg" xmlns:xlink="http://www.w3.org/1999/xlink">
    <title>user</title>
    <g id="VD" stroke="none" stroke-width="1" fill="none" fill-rule="evenodd">
        <g id="Dashboard" transform="translate(-448.000000, -968.000000)" fill="#000000" fill-rule="nonzero">
            <g id="Card/card" transform="translate(159.000000, 954.000000)">
                <g id="user" transform="translate(289.500000, 14.000000)">
                    <path d="M13.28,11.52 C12.8,11.04 12,10.64 9.6,10.08 C10.88,9.2 11.92,7.2 11.92,5.2 C11.92,2.88 11.44,0.08 7.44,0 L7.44,0 L7.12,0 C3.04,0 2.56,2.88 2.56,5.2 C2.56,7.2 3.52,9.2 4.88,10.16 C2.48,10.56 1.68,11.04 1.2,11.6 C0.4,12.4 -0.24,14.32 0.56,15.52 C0.96,16 2.96,16 7.12,16 L7.28,16 L7.28,16 C11.44,16 13.44,16 13.84,15.36 C14.64,14.32 14.08,12.32 13.28,11.52 Z M13.12,14.72 C12.64,14.8 11.04,14.88 7.28,14.88 L7.28,14.88 L7.04,14.88 C3.28,14.88 1.68,14.8 1.12,14.72 C1.04,13.84 1.28,12.96 1.52,12.64 C2.16,11.84 3.2,11.68 5.2,11.12 C5.6,11.04 6.16,11.12 6.16,11.12 L6.32,10 C6.32,10 5.92,9.84 5.68,9.6 C4.4,8.72 3.52,7.12 3.52,5.2 C3.52,3.2 3.92,1.12 7.04,1.12 L7.12,1.12 C10.32,1.12 10.64,3.2 10.64,5.2 C10.64,7.12 9.76,8.72 8.4,9.6 C8.24,9.76 7.76,10 7.76,10 L7.84,11.12 C7.84,11.12 8.48,11.04 8.8,11.12 C10.8,11.52 12,11.84 12.48,12.64 C12.96,12.88 13.28,13.76 13.12,14.72 Z" id="Shape"></path>
                </g>
            </g>
        </g>
    </g>
</svg>