<?xml version="1.0" encoding="UTF-8"?>
<svg width="28px" height="26px" viewBox="0 0 28 26" version="1.1" xmlns="http://www.w3.org/2000/svg" xmlns:xlink="http://www.w3.org/1999/xlink">
    <title>CreateCase_</title>
    <g id="VD" stroke="none" stroke-width="1" fill="none" fill-rule="evenodd">
        <g id="Dashboard" transform="translate(-268.000000, -214.000000)" fill-rule="nonzero">
            <g id="Group-9" transform="translate(258.000000, 202.000000)">
                <g id="CreateCase_" transform="translate(10.000000, 12.000000)">
                    <path d="M23.1936558,14.2361785 L23.1936558,16.1324547 C23.1936558,16.9937057 22.4902562,17.694393 21.6256714,17.694393 L19.1587568,17.694393 C18.294172,17.694393 17.5907724,16.9937057 17.5907724,16.1324547 L17.5907724,14.2361785 L10.1575535,14.2361785 L10.1575535,16.1324547 C10.1575535,16.9937057 9.45415389,17.694393 8.58956911,17.694393 L6.12265448,17.694393 C5.2580697,17.694393 4.55467006,16.9937057 4.55467006,16.1324547 L4.55467006,14.2361785 L1.24344979e-14,14.2361785 L1.24344979e-14,23.6958804 C1.24344979e-14,24.7613925 0.86985561,25.6285714 1.93966239,25.6285714 L25.9174805,25.6285714 C26.9872872,25.6285714 27.8571429,24.7613925 27.8571429,23.6958804 L27.8571429,14.2361785 L23.1936558,14.2361785 Z M21.5614014,11.8568565 L19.2230268,11.8568565 L19.2230268,16.0684326 L21.5614014,16.0684326 L21.5614014,11.8568565 Z M25.9174805,5.09387756 L1.93966239,5.09387756 C0.86985561,5.09387756 0,5.96037891 0,7.02606046 L0,12.6102181 L4.55467006,12.6102181 L4.55467006,11.7930036 C4.55467006,10.9317527 5.2580697,10.2308961 6.12265448,10.2308961 L8.58956911,10.2308961 C9.45415389,10.2308961 10.1575535,10.9317527 10.1575535,11.7930036 L10.1575535,12.6102181 L17.5907724,12.6102181 L17.5907724,11.7930036 C17.5907724,10.9317527 18.294172,10.2308961 19.1587568,10.2308961 L21.6256714,10.2308961 C22.4902562,10.2308961 23.1936558,10.9317527 23.1936558,11.7930036 L23.1936558,12.6102181 L27.8571429,12.6102181 L27.8571429,7.02606046 C27.8571429,5.96037891 26.9872872,5.09387756 25.9174805,5.09387756 Z M6.18692453,11.8568565 L6.18692453,16.0684326 L8.52529906,16.0684326 L8.52529906,11.8568565 L6.18692453,11.8568565 Z" id="Shape" fill="#FF6710"></path>
                    <polygon id="+" fill="#FFFFFF" points="14.347335 19.7416729 16.0523159 19.7416729 16.0523159 20.7619038 14.347335 20.7619038 14.347335 22.7518136 13.2884522 22.7518136 13.2884522 20.7619038 11.5744978 20.7619038 11.5744978 19.7416729 13.2884522 19.7416729 13.2884522 17.8804409 14.347335 17.8804409"></polygon>
                    <path d="M8.63539713,3.34285714 L8.63539713,2.08050512 C8.63539713,1.8379818 8.83353399,1.64074996 9.07738167,1.64074996 L18.6205775,1.64074996 C18.8642552,1.64074996 19.062562,1.8379818 19.062562,2.08050512 L19.062562,3.34285714 L20.6938776,3.34285714 L20.6938776,2.08050512 C20.6938776,0.933176539 19.7638578,0 18.6205775,0 L9.07738167,0 C7.93410141,0 7.00408164,0.933518384 7.00408164,2.08050512 L7.00408164,3.34285714 L8.63539713,3.34285714 Z" id="Path" fill="#FF6710"></path>
                </g>
            </g>
        </g>
    </g>
</svg>