<?xml version="1.0" encoding="UTF-8"?>
<svg width="21px" height="25px" viewBox="0 0 21 25" version="1.1" xmlns="http://www.w3.org/2000/svg" xmlns:xlink="http://www.w3.org/1999/xlink">
    <title>doc</title>
    <g id="VD" stroke="none" stroke-width="1" fill="none" fill-rule="evenodd" stroke-linejoin="round">
        <g id="Dashboard" transform="translate(-158.000000, -846.000000)" stroke="#FF4D00" stroke-width="0.5">
            <g id="doc" transform="translate(158.000000, 846.000000)">
                <polyline id="Stroke-1" points="12.7228916 11.8554217 10.4530494 14.1686747 8.09638554 11.8554217"></polyline>
                <line x1="10.2650602" y1="14.1686747" x2="10.2650602" y2="16.1927711" id="Stroke-2"></line>
                <line x1="6.93975904" y1="17.7831325" x2="13.5903614" y2="17.7831325" id="Stroke-3"></line>
                <line x1="7.51807229" y1="19.5180723" x2="13.3012048" y2="19.5180723" id="Stroke-4"></line>
                <line x1="7.51807229" y1="21.253012" x2="13.3012048" y2="21.253012" id="Stroke-5"></line>
                <path d="M4.1080544,9.6515901 C3.86923114,11.516982 4.35389393,13.3022151 5.40309714,14.5991584 C6.85060897,16.4580289 7.49475713,18.73128 7.49475713,21.0781686 C7.49475713,21.0781686 7.49475713,21.0781686 7.49475713,21.0781686 C7.49475713,22.7028937 8.78953001,24 10.4030038,24 C10.4030038,24 10.4030038,24 10.4030038,24 C12.010001,24 13.3047739,22.7028937 13.3047739,21.0781686 C13.3047739,20.8374202 13.3047739,20.8374202 13.3047739,20.8374202 C13.3047739,18.4840103 14.1084074,16.2974394 15.4760416,14.4320475 C16.2861517,13.3823739 16.7710843,12.0851589 16.7710843,10.7080568 C16.7710843,6.89684235 13.4642592,3.90134628 9.67250144,4.38963605 C6.85060897,4.71054324 4.59298705,6.89684235 4.1080544,9.6515901 Z" id="Stroke-6"></path>
                <line x1="10.2650602" y1="0" x2="10.2650602" y2="1.73493976" id="Stroke-7"></line>
                <line x1="0" y1="10.8433735" x2="1.73493976" y2="10.8433735" id="Stroke-8"></line>
                <line x1="19.0843373" y1="10.8433735" x2="20.8192771" y2="10.8433735" id="Stroke-9"></line>
                <line x1="4.04819277" y1="16.4819277" x2="2.89156627" y2="17.6385542" id="Stroke-10"></line>
                <line x1="17.3493976" y1="3.46987952" x2="16.1927711" y2="4.62650602" id="Stroke-11"></line>
                <line x1="16.7710843" y1="17.060241" x2="17.9277108" y2="18.2168675" id="Stroke-12"></line>
                <line x1="2.89156627" y1="3.46987952" x2="4.04819277" y2="4.62650602" id="Stroke-13"></line>
            </g>
        </g>
    </g>
</svg>