<?xml version="1.0" encoding="UTF-8"?>
<svg width="13px" height="16px" viewBox="0 0 13 16" version="1.1" xmlns="http://www.w3.org/2000/svg" xmlns:xlink="http://www.w3.org/1999/xlink">
    <title>notifications (2)</title>
    <g id="VD" stroke="none" stroke-width="1" fill="none" fill-rule="evenodd">
        <g id="Dashboard" transform="translate(-478.000000, -968.000000)" fill="#000000" fill-rule="nonzero">
            <g id="Card/card" transform="translate(159.000000, 954.000000)">
                <g id="notifications-(2)" transform="translate(319.000000, 14.000000)">
                    <path d="M13,8.4 C13,8.48 12.26875,9.6 10.2375,9.6 C9.34375,9.6 8.53125,9.36 7.71875,8.96 C6.3375,8.4 4.95625,8.08 3.4125,8.16 C2.6,8.24 1.7875,8.32 0.975,8.56 L0.975,15.6 C1.05625,16 0.65,16 0.4875,16 C0.325,16 0,16 0,15.52 L0,0.88 C1.3,0.32 2.68125,0 4.0625,0 C5.44375,0.08 6.74375,0.32 7.9625,0.88 C8.69375,1.2 9.50625,1.44 10.31875,1.44 C11.375,1.52 12.43125,1.04 13,0.16 L13,8.4 L13,8.4 Z M11.94375,2.08 C11.45625,2.32 10.8875,2.48 10.31875,2.4 C9.425,2.4 8.53125,2.16 7.6375,1.76 C6.58125,1.2 5.44375,0.88 4.225,0.88 C3.0875,0.88 2.03125,1.04 0.975,1.36 L0.975,7.44 C1.7875,7.2 2.68125,7.04 3.575,7.04 C5.2,7.04 6.74375,7.36 8.20625,8.08 C8.85625,8.4 9.5875,8.56 10.31875,8.56 C10.8875,8.56 11.45625,8.4 11.8625,8.08 C11.94375,7.68 11.94375,2.08 11.94375,2.08 Z" id="Shape"></path>
                </g>
            </g>
        </g>
    </g>
</svg>