<svg id="Layer_1" data-name="Layer 1" xmlns="http://www.w3.org/2000/svg" viewBox="0 0 16 16"><defs><style>.cls-1{fill:#ef8240;}.cls-2{opacity:0.5;}.cls-3{fill:#fff;}.cls-4,.cls-5{fill:none;stroke-miterlimit:10;}.cls-4{stroke:#2b2a79;stroke-width:0.5px;}.cls-5{stroke:#fff;stroke-width:0.25px;}.cls-6{fill:#2b2a79;}</style></defs><title>license_icons</title><path class="cls-1" d="M8,15.85A7.9,7.9,0,1,1,15.85,8,7.9,7.9,0,0,1,8,15.85ZM8,.55A7.41,7.41,0,1,0,15.36,8,7.41,7.41,0,0,0,8,.55Z"/><path class="cls-1" d="M3.5,11.6v-.8A1.29,1.29,0,0,1,4.8,9.4h0a1.32,1.32,0,0,1,1.3,1.3v.8a1.32,1.32,0,0,1-1.3,1.3h0A1.13,1.13,0,0,1,3.5,11.6Z"/><g class="cls-2"><path class="cls-1" d="M6.8,11.6V8.1A1.32,1.32,0,0,1,8.1,6.8h0A1.32,1.32,0,0,1,9.4,8.1v3.5a1.32,1.32,0,0,1-1.3,1.3h0A1.32,1.32,0,0,1,6.8,11.6Z"/></g><g class="cls-2"><path class="cls-1" d="M10.1,11.6V5a1.32,1.32,0,0,1,1.3-1.3h0A1.32,1.32,0,0,1,12.7,5v6.6a1.32,1.32,0,0,1-1.3,1.3h0A1.32,1.32,0,0,1,10.1,11.6Z"/></g><path class="cls-3" d="M13.6,11.1a2.3,2.3,0,1,0,2.3,2.3A2.3,2.3,0,0,0,13.6,11.1ZM15,14.35l-1.55-.89v-1.8a1.79,1.79,0,0,1,1.8,1.8A1.7,1.7,0,0,1,15,14.35Z"/><circle class="cls-4" cx="13.46" cy="13.46" r="2.3"/><line class="cls-5" x1="13.46" y1="13.49" x2="13.46" y2="13.46"/><polyline class="cls-5" points="13.39 13.42 13.45 13.46 13.46 13.46"/><path class="cls-3" d="M15,14.35a1.78,1.78,0,0,1-3.1,0,1.7,1.7,0,0,1-.25-.89,1.8,1.8,0,0,1,1.8-1.8v1.8Z"/><path class="cls-6" d="M15.26,13.46a1.7,1.7,0,0,1-.25.89l-1.55-.89v-1.8A1.79,1.79,0,0,1,15.26,13.46Z"/></svg>