<?xml version="1.0" encoding="UTF-8"?>
<svg width="32px" height="31px" viewBox="0 0 32 31" version="1.1" xmlns="http://www.w3.org/2000/svg" xmlns:xlink="http://www.w3.org/1999/xlink">
    <title>new case</title>
    <g id="Prototype" stroke="none" stroke-width="1" fill="none" fill-rule="evenodd">
        <g id="new-case">
            <g id="CreateCase_" fill-rule="nonzero">
                <path d="M20.2455235,12.6802306 L20.2455235,14.3692527 C20.2455235,15.1363729 19.6315325,15.7604783 18.8768446,15.7604783 L16.7234981,15.7604783 C15.9688102,15.7604783 15.3548193,15.1363729 15.3548193,14.3692527 L15.3548193,12.6802306 L8.86643269,12.6802306 L8.86643269,14.3692527 C8.86643269,15.1363729 8.25244178,15.7604783 7.49775388,15.7604783 L5.34440736,15.7604783 C4.58971946,15.7604783 3.97572854,15.1363729 3.97572854,14.3692527 L3.97572854,12.6802306 L1.0658141e-14,12.6802306 L1.0658141e-14,21.1060312 C1.0658141e-14,22.0550878 0.759288759,22.8274881 1.69311301,22.8274881 L22.6231243,22.8274881 C23.5569485,22.8274881 24.3162373,22.0550878 24.3162373,21.1060312 L24.3162373,12.6802306 L20.2455235,12.6802306 Z M18.8207439,10.5609573 L16.7795988,10.5609573 L16.7795988,14.3122278 L18.8207439,14.3122278 L18.8207439,10.5609573 Z M22.6231243,4.5371405 L1.69311301,4.5371405 C0.759288759,4.5371405 0,5.30893729 0,6.25814482 L0,11.2319801 L3.97572854,11.2319801 L3.97572854,10.5040833 C3.97572854,9.73696314 4.58971946,9.1127069 5.34440736,9.1127069 L7.49775388,9.1127069 C8.25244178,9.1127069 8.86643269,9.73696314 8.86643269,10.5040833 L8.86643269,11.2319801 L15.3548193,11.2319801 L15.3548193,10.5040833 C15.3548193,9.73696314 15.9688102,9.1127069 16.7234981,9.1127069 L18.8768446,9.1127069 C19.6315325,9.1127069 20.2455235,9.73696314 20.2455235,10.5040833 L20.2455235,11.2319801 L24.3162373,11.2319801 L24.3162373,6.25814482 C24.3162373,5.30893729 23.5569485,4.5371405 22.6231243,4.5371405 Z M5.40050808,10.5609573 L5.40050808,14.3122278 L7.44165316,14.3122278 L7.44165316,10.5609573 L5.40050808,10.5609573 Z" id="Shape" fill="#FF6710"></path>
                <polygon id="+" fill="#FFFFFF" points="12.5236534 17.5840001 14.0119151 17.5840001 14.0119151 18.4927245 12.5236534 18.4927245 12.5236534 20.2651465 11.5993646 20.2651465 11.5993646 18.4927245 10.10327 18.4927245 10.10327 17.5840001 11.5993646 17.5840001 11.5993646 15.9261921 12.5236534 15.9261921"></polygon>
                <path d="M7.53775672,2.97749845 L7.53775672,1.85311561 C7.53775672,1.63709896 7.71070851,1.46142364 7.92356086,1.46142364 L16.2537265,1.46142364 C16.4664305,1.46142364 16.6395306,1.63709896 16.6395306,1.85311561 L16.6395306,2.97749845 L18.0634906,2.97749845 L18.0634906,1.85311561 C18.0634906,0.831184695 17.2516851,0 16.2537265,0 L7.92356086,0 C6.9256023,0 6.11379681,0.831489177 6.11379681,1.85311561 L6.11379681,2.97749845 L7.53775672,2.97749845 Z" id="Path" fill="#FF6710"></path>
            </g>
            <polygon id="Path-2" fill="#0A4FC7" points="20.9465636 14.072463 22.7955343 12.1581187 24.6419274 14.072463 27.2933409 13.4246804 27.929214 16.1020395 30.7393164 16.8663119 29.6822429 19.3775991 32 21.1490427 29.6822429 22.8738118 30.7393164 25.6522566 27.929214 26.2019328 27.2933409 28.955137 24.6419274 28.0931273 22.7955343 30.1479401 20.9465636 28.0931273 18.2695713 28.955137 17.7251456 26.2019328 14.8207556 25.6522566 15.7829051 23.1721995 13.6778835 21.1490427 15.7829051 19.3775991 14.8207556 16.6011743 17.7251456 16.1020395 18.2695713 13.4246804"></polygon>
            <text id="NEW" font-family="Roboto-Bold, Roboto" font-size="3" font-weight="bold" line-spacing="6" letter-spacing="0.1475" fill="#FFFFFF">
                <tspan x="20.1205053" y="21.2767076">NEW</tspan>
            </text>
        </g>
    </g>
</svg>