<?xml version="1.0" encoding="UTF-8"?>
<svg width="20px" height="20px" viewBox="0 0 20 20" version="1.1" xmlns="http://www.w3.org/2000/svg" xmlns:xlink="http://www.w3.org/1999/xlink">
    <title>Group 6</title>
    <g id="VD" stroke="none" stroke-width="1" fill="none" fill-rule="evenodd">
        <g id="Dashboard" transform="translate(-616.000000, -1327.000000)" fill-rule="nonzero">
            <g id="Card/card" transform="translate(525.000000, 1218.000000)">
                <g id="Group-6" transform="translate(91.000000, 109.000000)">
                    <circle id="Oval" fill="#FF4E02" cx="10" cy="10" r="10"></circle>
                    <path d="M12.3532717,9.79584852 C13.819739,8.80946166 14.1985681,6.83471909 13.1996556,5.38664017 C12.1997462,3.93856125 10.2009244,3.5644824 8.73445713,4.55086926 C7.26699293,5.53824055 6.88816386,7.51199869 7.88807323,8.96007762 C8.11437375,9.28887324 8.40148632,9.57238563 8.73445713,9.79584852 C8.81520754,9.85392919 8.83315208,9.96615284 8.77433388,10.0458907 C8.75140475,10.0764077 8.71950335,10.0990493 8.68361428,10.1108623 C6.5262824,10.8659109 5.06280587,12.8544353 5,15.1136747 C5.00099692,15.1904593 5.04984593,15.2583842 5.12262099,15.2849635 C6.87321008,15.7683127 8.68261736,16.0085107 10.5,15.9996509 C12.3173826,16.0104795 14.1277868,15.7692971 15.877379,15.2849635 C15.9501541,15.2583842 15.9990031,15.1904593 16,15.1136747 C15.9332065,12.8554198 14.4707268,10.8698486 12.3163857,10.1108623 C12.2356353,10.0399842 12.22766,9.91890078 12.2994381,9.8381785 C12.3143919,9.82144339 12.3323364,9.80667712 12.3532717,9.79584852 Z" id="Path" fill="#FFFFFF"></path>
                </g>
            </g>
        </g>
    </g>
</svg>