<?xml version="1.0" encoding="UTF-8"?>
<svg width="6px" height="17px" viewBox="0 0 6 17" version="1.1" xmlns="http://www.w3.org/2000/svg" xmlns:xlink="http://www.w3.org/1999/xlink">
    <title>pickers_dialog</title>
    <g id="VD" stroke="none" stroke-width="1" fill="none" fill-rule="evenodd">
        <g id="Dashboard" transform="translate(-817.000000, -1165.000000)" fill="#000000">
            <g id="pickers_dialog" transform="translate(820.000000, 1173.500000) rotate(90.000000) translate(-820.000000, -1173.500000) translate(812.000000, 1171.000000)">
                <path d="M1.95555556,0.666666667 C3.03557907,0.666666667 3.91111111,1.48747796 3.91111111,2.5 C3.91111111,3.51252204 3.03557907,4.33333333 1.95555556,4.33333333 C0.875532045,4.33333333 -6.88338275e-15,3.51252204 -6.88338275e-15,2.5 C-6.88338275e-15,1.48747796 0.875532045,0.666666667 1.95555556,0.666666667 Z M8,0.666666667 C9.08002351,0.666666667 9.95555556,1.48747796 9.95555556,2.5 C9.95555556,3.51252204 9.08002351,4.33333333 8,4.33333333 C6.91997649,4.33333333 6.04444444,3.51252204 6.04444444,2.5 C6.04444444,1.48747796 6.91997649,0.666666667 8,0.666666667 Z M14.0444444,0.666666667 C15.124468,0.666666667 16,1.48747796 16,2.5 C16,3.51252204 15.124468,4.33333333 14.0444444,4.33333333 C12.9644209,4.33333333 12.0888889,3.51252204 12.0888889,2.5 C12.0888889,1.48747796 12.9644209,0.666666667 14.0444444,0.666666667 Z" id="Fill"></path>
            </g>
        </g>
    </g>
</svg>