<?xml version="1.0" encoding="UTF-8"?>
<svg width="22px" height="20px" viewBox="0 0 22 20" version="1.1" xmlns="http://www.w3.org/2000/svg" xmlns:xlink="http://www.w3.org/1999/xlink">
    <title>prod_case</title>
    <g id="Prototype" stroke="none" stroke-width="1" fill="none" fill-rule="evenodd">
        <g id="Create_Case" transform="translate(-525.000000, -244.000000)" fill-rule="nonzero">
            <g id="prod_case" transform="translate(525.000000, 244.000000)">
                <g id="CreateCase_" transform="translate(0.000000, 0.000000)">
                    <path d="M13.3214844,8.34354784 L13.3214844,9.45491853 C13.3214844,9.95968098 12.9174805,10.3703402 12.4208985,10.3703402 L11.0040039,10.3703402 C10.5074219,10.3703402 10.103418,9.95968098 10.103418,9.45491853 L10.103418,8.34354784 L5.83408203,8.34354784 L5.83408203,9.45491853 C5.83408203,9.95968098 5.43007813,10.3703402 4.93349611,10.3703402 L3.51660155,10.3703402 C3.02001952,10.3703402 2.61601562,9.95968098 2.61601562,9.45491853 L2.61601562,8.34354784 L7.99360578e-15,8.34354784 L7.99360578e-15,13.8876955 C7.99360578e-15,14.5121715 0.499609376,15.0204082 1.1140625,15.0204082 L14.8859375,15.0204082 C15.5003906,15.0204082 16,14.5121715 16,13.8876955 L16,8.34354784 L13.3214844,8.34354784 Z M12.3839844,6.94907339 L11.040918,6.94907339 L11.040918,9.41739638 L12.3839844,9.41739638 L12.3839844,6.94907339 Z M14.8859375,2.98542275 L1.1140625,2.98542275 C0.499609376,2.98542275 0,3.49326237 0,4.11783763 L0,7.39060403 L2.61601562,7.39060403 L2.61601562,6.91165048 C2.61601562,6.40688805 3.02001952,5.99612961 3.51660155,5.99612961 L4.93349611,5.99612961 C5.43007813,5.99612961 5.83408203,6.40688805 5.83408203,6.91165048 L5.83408203,7.39060403 L10.103418,7.39060403 L10.103418,6.91165048 C10.103418,6.40688805 10.5074219,5.99612961 11.0040039,5.99612961 L12.4208985,5.99612961 C12.9174805,5.99612961 13.3214844,6.40688805 13.3214844,6.91165048 L13.3214844,7.39060403 L16,7.39060403 L16,4.11783763 C16,3.49326237 15.5003906,2.98542275 14.8859375,2.98542275 Z M3.55351563,6.94907339 L3.55351563,9.41739638 L4.89658203,9.41739638 L4.89658203,6.94907339 L3.55351563,6.94907339 Z" id="Shape" fill="#FF6710"></path>
                    <polygon id="+" fill="#FFFFFF" points="8.24052061 11.5702112 9.21979168 11.5702112 9.21979168 12.1681487 8.24052061 12.1681487 8.24052061 13.3343962 7.63234176 13.3343962 7.63234176 12.1681487 6.64791667 12.1681487 6.64791667 11.5702112 7.63234176 11.5702112 7.63234176 10.4793793 8.24052061 10.4793793"></polygon>
                    <path d="M4.95981784,1.95918367 L4.95981784,1.21934366 C4.95981784,1.07720545 5.07361952,0.961611698 5.21367563,0.961611698 L10.6948958,0.961611698 C10.8348543,0.961611698 10.9487536,1.07720545 10.9487536,1.21934366 L10.9487536,1.95918367 L11.8857143,1.95918367 L11.8857143,1.21934366 C11.8857143,0.546916653 11.3515491,0 10.6948958,0 L5.21367563,0 C4.55702235,0 4.02285715,0.547117001 4.02285715,1.21934366 L4.02285715,1.95918367 L4.95981784,1.95918367 Z" id="Path" fill="#FF6710"></path>
                </g>
                <path d="M21.918,14.459 C21.918,11.444 19.474,9 16.459,9 C13.444,9 11,11.444 11,14.459 C11,17.474 13.444,19.918 16.459,19.918 C19.474,19.918 21.918,17.474 21.918,14.459" id="Path" fill="#2473E4"></path>
                <path d="M18.9068,12.7109 C18.9068,12.3249 18.5938,12.0119 18.2068,12.0119 C17.8208,12.0119 17.5078,12.3249 17.5078,12.7109 C17.5078,13.0969 17.8208,13.4099 18.2068,13.4099 C18.5938,13.4099 18.9068,13.0969 18.9068,12.7109 M16.9328,15.1509 L15.8768,16.2079 L15.1778,16.2079 L15.1778,16.9069 L14.4778,16.9069 L14.4778,17.6059 L13.3128,17.6059 L13.3128,16.4399 L15.7668,13.9849 C15.6868,13.7699 15.6428,13.5369 15.6428,13.2939 C15.6428,12.1989 16.5308,11.3129 17.6248,11.3129 C18.7188,11.3129 19.6058,12.1989 19.6058,13.2939 C19.6058,14.3879 18.7188,15.2749 17.6248,15.2749 C17.3818,15.2749 17.1478,15.2309 16.9328,15.1509" id="Shape" fill="#FFFFFF"></path>
            </g>
        </g>
    </g>
</svg>