<?xml version="1.0" encoding="UTF-8"?>
<svg width="16px" height="12px" viewBox="0 0 16 12" version="1.1" xmlns="http://www.w3.org/2000/svg" xmlns:xlink="http://www.w3.org/1999/xlink">
    <title>view</title>
    <g id="VD" stroke="none" stroke-width="1" fill="none" fill-rule="evenodd">
        <g id="Case_Admin_Priority" transform="translate(-1037.000000, -516.000000)" fill="#FFFFFF">
            <g id="Card/card" transform="translate(899.000000, 304.000000)">
                <g id="Group-5" transform="translate(130.651899, 207.000000)">
                    <g id="view" transform="translate(7.348101, 5.000000)">
                        <path d="M15.84,6.98220514 C15.84,6.98220514 12.8,0.3310671 12.8,0.3310671 C12.64,0.006621342 12.48,0.006621342 12,0.006621342 L10.16,0.006621342 L10.16,0.006621342 C9.92,0.006621342 9.76,0.249955661 9.76,0.41217854 C9.76,0.655512858 10,0.817735738 10.24,0.817735738 L12.08,0.817735738 C12.16,0.817735738 12.24,0.898847177 12.32,0.979958617 L14.72,6.17109075 C14.72,6.25220219 14.72,6.33331363 14.64,6.33331363 L1.36,6.33331363 C1.28,6.33331363 1.2,6.25220219 1.28,6.17109075 L3.68,0.979958617 C3.76,0.898847177 3.84,0.817735738 3.92,0.817735738 L5.76,0.817735738 C6,0.817735738 6.16,0.574401419 6.16,0.41217854 C6.16,0.249955661 5.92,0.0877327816 5.76,0.006621342 L3.92,0.006621342 C3.36,0.006621342 3.28,-0.0744900975 3.12,0.3310671 C3.12,0.3310671 0.08,6.98220514 0.08,6.98220514 C0.08,7.06331658 0,7.14442802 0,7.3066509 L0,7.54998522 C0,9.57777121 1.6,11.2 3.6,11.2 C4.96,11.2 6.16,10.3888856 6.72,9.25332545 L9.28,9.25332545 C9.92,10.3888856 11.04,11.2 12.4,11.2 L12.4,11.2 C14.4,11.2 16,9.57777121 16,7.54998522 L16,7.3066509 C15.92,7.14442802 15.92,7.06331658 15.84,6.98220514 Z M3.52,10.3077742 C2,10.3077742 0.8,9.00999113 0.8,7.54998522 L0.8,7.3066509 L6.24,7.3066509 L6.24,7.54998522 C6.24,9.00999113 5.04,10.3077742 3.52,10.3077742 Z M7.04,8.36109962 C7.12,8.1177653 7.12,7.79331954 7.12,7.54998522 L7.12,7.3066509 L8.8,7.3066509 L8.8,7.54998522 C8.8,7.87443098 8.88,8.1177653 8.88,8.36109962 L7.04,8.36109962 Z M12.32,10.3077742 C10.8,10.3077742 9.6,9.09110257 9.6,7.54998522 L9.6,7.3066509 L15.04,7.3066509 L15.04,7.54998522 C15.04,9.00999113 13.84,10.3077742 12.32,10.3077742 Z" id="Fill"></path>
                    </g>
                </g>
            </g>
        </g>
    </g>
</svg>