<?xml version="1.0" encoding="UTF-8"?>
<svg width="28px" height="28px" viewBox="0 0 28 28" version="1.1" xmlns="http://www.w3.org/2000/svg" xmlns:xlink="http://www.w3.org/1999/xlink">
    <title>RequetVAS</title>
    <g id="VD" stroke="none" stroke-width="1" fill="none" fill-rule="evenodd">
        <g id="Dashboard" transform="translate(-658.000000, -213.000000)" fill="#FF6710" fill-rule="nonzero">
            <g id="Group-11" transform="translate(648.000000, 202.000000)">
                <g id="RequetVAS" transform="translate(10.000000, 11.000000)">
                    <path d="M7.87158204,20.9350586 C8.8909912,20.1412353 9.5485229,18.9035034 9.5485229,17.5145264 C9.5485229,15.1242981 7.60369871,13.1796875 5.21347045,13.1796875 C2.82324219,13.1796875 0.878631577,15.1242981 0.878631577,17.5145264 C0.878631577,18.9035034 1.53616334,20.1412353 2.55535886,20.9350586 C1.11682129,21.7908326 0,23.4071045 0,25.4224243 L0,27.1796875 C0,27.632782 0.367218031,28 0.8203125,28 L9.60684205,28 C10.0597229,28 10.4271545,27.632782 10.4271545,27.1796875 L10.4271545,25.4224243 C10.4271545,23.4075317 9.31054689,21.7910462 7.87158204,20.9350586 Z M2.51925658,17.5145264 C2.51925658,16.0289917 3.72793581,14.8203125 5.21368409,14.8203125 C6.69921877,14.8203125 7.9078979,16.0289917 7.9078979,17.5145264 C7.9078979,19.0002747 6.69921877,20.2089538 5.21368409,20.2089538 C3.72793581,20.2089538 2.51925658,19.0002747 2.51925658,17.5145264 Z M8.78652955,26.359375 L1.640625,26.359375 L1.640625,25.4224243 C1.640625,23.4489746 3.23724362,21.8495788 5.21347045,21.8495788 C7.18692016,21.8495788 8.78631591,23.4461975 8.78631591,25.4224243 L8.78631591,26.359375 L8.78652955,26.359375 Z" id="Shape"></path>
                    <path d="M24.5437927,0 L14,0 C12.0910644,0 10.5437927,1.54449466 10.5437927,3.45620729 L10.5437927,19.2717896 C10.5437927,19.9427795 11.3132629,20.3352051 11.8562927,19.9280396 L15.1520691,17.4562073 L24.5437927,17.4562073 C26.4527283,17.4562073 28,15.9117126 28,14 L28,3.45620729 C28,1.54727174 26.4555053,0 24.5437927,0 L24.5437927,0 Z M26.359375,14 C26.359375,15.0036011 25.547821,15.8155823 24.5437927,15.8155823 L14.8786316,15.8155823 C14.7011108,15.8155823 14.5285034,15.8732605 14.3864441,15.9796448 L12.1844177,17.6311646 L12.1844177,3.45620729 C12.1844177,2.45260619 12.9959717,1.640625 14,1.640625 L24.5437927,1.640625 C25.5473938,1.640625 26.359375,2.45217897 26.359375,3.45620729 L26.359375,14 Z" id="Shape"></path>
                    <path d="M23.6651611,4.39315794 L14.8786316,4.39315794 C14.4255371,4.39315794 14.0583191,4.76058959 14.0583191,5.21347045 C14.0583191,5.66656496 14.4255371,6.03378295 14.8786316,6.03378295 L23.6651611,6.03378295 C24.118042,6.03378295 24.4854736,5.66656496 24.4854736,5.21347045 C24.4854736,4.76058959 24.1182556,4.39315794 23.6651611,4.39315794 Z" id="Path"></path>
                    <path d="M23.6651611,7.9078979 L14.8786316,7.9078979 C14.4255371,7.9078979 14.0583191,8.27511594 14.0583191,8.7282104 C14.0583191,9.18109127 14.4255371,9.5485229 14.8786316,9.5485229 L23.6651611,9.5485229 C24.118042,9.5485229 24.4854736,9.18109127 24.4854736,8.7282104 C24.4854736,8.27511594 24.1182556,7.9078979 23.6651611,7.9078979 Z" id="Path"></path>
                    <path d="M19.2717896,11.4224243 L14.8786316,11.4224243 C14.4255371,11.4224243 14.0583191,11.7896423 14.0583191,12.2427368 C14.0583191,12.6958313 14.4255371,13.0630493 14.8786316,13.0630493 L19.2717896,13.0630493 C19.7248841,13.0630493 20.0921021,12.6958313 20.0921021,12.2427368 C20.0921021,11.7896423 19.7248841,11.4224243 19.2717896,11.4224243 Z" id="Path"></path>
                </g>
            </g>
        </g>
    </g>
</svg>