<?xml version="1.0" encoding="UTF-8"?>
<svg width="21px" height="19px" viewBox="0 0 21 19" version="1.1" xmlns="http://www.w3.org/2000/svg" xmlns:xlink="http://www.w3.org/1999/xlink">
    <title>tech_case</title>
    <g id="Prototype" stroke="none" stroke-width="1" fill="none" fill-rule="evenodd">
        <g id="Create_Case" transform="translate(-199.000000, -244.000000)">
            <g id="tech_case" transform="translate(199.000000, 244.000000)">
                <g id="CreateCase_" transform="translate(0.000000, 0.000000)" fill-rule="nonzero">
                    <path d="M13.3214844,8.34354784 L13.3214844,9.45491853 C13.3214844,9.95968098 12.9174805,10.3703402 12.4208985,10.3703402 L11.0040039,10.3703402 C10.5074219,10.3703402 10.103418,9.95968098 10.103418,9.45491853 L10.103418,8.34354784 L5.83408203,8.34354784 L5.83408203,9.45491853 C5.83408203,9.95968098 5.43007813,10.3703402 4.93349611,10.3703402 L3.51660155,10.3703402 C3.02001952,10.3703402 2.61601562,9.95968098 2.61601562,9.45491853 L2.61601562,8.34354784 L7.99360578e-15,8.34354784 L7.99360578e-15,13.8876955 C7.99360578e-15,14.5121715 0.499609376,15.0204082 1.1140625,15.0204082 L14.8859375,15.0204082 C15.5003906,15.0204082 16,14.5121715 16,13.8876955 L16,8.34354784 L13.3214844,8.34354784 Z M12.3839844,6.94907339 L11.040918,6.94907339 L11.040918,9.41739638 L12.3839844,9.41739638 L12.3839844,6.94907339 Z M14.8859375,2.98542275 L1.1140625,2.98542275 C0.499609376,2.98542275 0,3.49326237 0,4.11783763 L0,7.39060403 L2.61601562,7.39060403 L2.61601562,6.91165048 C2.61601562,6.40688805 3.02001952,5.99612961 3.51660155,5.99612961 L4.93349611,5.99612961 C5.43007813,5.99612961 5.83408203,6.40688805 5.83408203,6.91165048 L5.83408203,7.39060403 L10.103418,7.39060403 L10.103418,6.91165048 C10.103418,6.40688805 10.5074219,5.99612961 11.0040039,5.99612961 L12.4208985,5.99612961 C12.9174805,5.99612961 13.3214844,6.40688805 13.3214844,6.91165048 L13.3214844,7.39060403 L16,7.39060403 L16,4.11783763 C16,3.49326237 15.5003906,2.98542275 14.8859375,2.98542275 Z M3.55351563,6.94907339 L3.55351563,9.41739638 L4.89658203,9.41739638 L4.89658203,6.94907339 L3.55351563,6.94907339 Z" id="Shape" fill="#FF6710"></path>
                    <polygon id="+" fill="#FFFFFF" points="8.24052061 11.5702112 9.21979168 11.5702112 9.21979168 12.1681487 8.24052061 12.1681487 8.24052061 13.3343962 7.63234176 13.3343962 7.63234176 12.1681487 6.64791667 12.1681487 6.64791667 11.5702112 7.63234176 11.5702112 7.63234176 10.4793793 8.24052061 10.4793793"></polygon>
                    <path d="M4.95981784,1.95918367 L4.95981784,1.21934366 C4.95981784,1.07720545 5.07361952,0.961611698 5.21367563,0.961611698 L10.6948958,0.961611698 C10.8348543,0.961611698 10.9487536,1.07720545 10.9487536,1.21934366 L10.9487536,1.95918367 L11.8857143,1.95918367 L11.8857143,1.21934366 C11.8857143,0.546916653 11.3515491,0 10.6948958,0 L5.21367563,0 C4.55702235,0 4.02285715,0.547117001 4.02285715,1.21934366 L4.02285715,1.95918367 L4.95981784,1.95918367 Z" id="Path" fill="#FF6710"></path>
                </g>
                <circle id="Oval" fill="#FFFFFF" cx="15.5" cy="13.5" r="1.5"></circle>
                <g id="resource-setting-scan-history" transform="translate(10.000000, 8.000350)" fill-rule="nonzero">
                    <path d="M5.486,7.811 C4.205,7.811 3.162,6.768 3.162,5.487 C3.162,4.205 4.205,3.162 5.486,3.162 C6.767,3.162 7.81,4.205 7.81,5.487 C7.81,6.768 6.767,7.811 5.486,7.811 M6.355,10.191 L6.355,10.097 C6.355,9.768 6.563,9.478 6.873,9.366 C6.972,9.329 7.072,9.288 7.168,9.243 C7.468,9.098 7.825,9.152 8.061,9.387 L8.124,9.45 C8.433,9.759 8.936,9.755 9.24,9.44 L9.388,9.286 C9.684,8.979 9.68,8.492 9.379,8.19 L9.285,8.096 C9.052,7.864 8.994,7.51 9.134,7.213 C9.186,7.102 9.233,6.991 9.273,6.876 C9.384,6.565 9.675,6.356 10.007,6.356 L10.19,6.356 C10.622,6.356 10.972,6.005 10.972,5.573 L10.972,5.355 C10.972,4.922 10.622,4.573 10.19,4.573 L10.096,4.573 C9.766,4.573 9.476,4.364 9.365,4.053 C9.328,3.954 9.287,3.855 9.242,3.759 C9.097,3.458 9.151,3.102 9.387,2.866 L9.46,2.793 C9.765,2.488 9.765,1.993 9.46,1.687 L9.331,1.558 C9.025,1.253 8.53,1.253 8.224,1.558 L8.143,1.64 C7.908,1.875 7.55,1.932 7.251,1.788 C7.134,1.731 7.015,1.679 6.895,1.632 C6.596,1.515 6.4,1.229 6.4,0.908 L6.4,0.783 C6.4,0.35 6.05,0 5.618,0 L5.354,0 C4.922,0 4.572,0.35 4.572,0.783 L4.572,0.887 C4.572,1.209 4.373,1.497 4.072,1.612 C3.957,1.657 3.842,1.707 3.73,1.76 C3.431,1.902 3.077,1.842 2.843,1.609 L2.783,1.548 C2.481,1.247 1.994,1.243 1.687,1.539 L1.533,1.688 C1.217,1.991 1.213,2.495 1.522,2.803 L1.605,2.887 C1.838,3.119 1.896,3.466 1.76,3.764 C1.715,3.864 1.673,3.966 1.633,4.07 C1.517,4.372 1.229,4.573 0.906,4.573 L0.782,4.573 C0.349,4.573 0,4.922 0,5.355 L0,5.619 C0,6.051 0.349,6.401 0.782,6.401 L0.875,6.401 C1.206,6.401 1.496,6.611 1.607,6.922 C1.648,7.036 1.695,7.149 1.747,7.258 C1.887,7.557 1.829,7.91 1.595,8.142 L1.503,8.235 C1.201,8.537 1.197,9.024 1.493,9.332 L1.641,9.486 C1.945,9.8 2.448,9.805 2.757,9.496 L2.845,9.407 C3.073,9.18 3.419,9.108 3.709,9.244 C3.822,9.297 3.937,9.346 4.053,9.392 C4.343,9.507 4.525,9.797 4.525,10.109 L4.525,10.191 C4.525,10.623 4.875,10.973 5.307,10.973 L5.572,10.973 C6.005,10.973 6.355,10.623 6.355,10.191" id="Shape" fill="#3399FF"></path>
                    <path d="M5.486,6.811 C4.755,6.811 4.162,6.218 4.162,5.487 C4.162,4.755 4.755,4.163 5.486,4.163 C6.217,4.163 6.81,4.755 6.81,5.487 C6.81,6.218 6.217,6.811 5.486,6.811 M7.81,5.487 C7.81,4.205 6.767,3.162 5.486,3.162 C4.205,3.162 3.162,4.205 3.162,5.487 C3.162,6.768 4.205,7.811 5.486,7.811 C6.767,7.811 7.81,6.768 7.81,5.487" id="Shape" fill="#85C2FF"></path>
                </g>
            </g>
        </g>
    </g>
</svg>