<?xml version="1.0" encoding="UTF-8"?>
<svg width="30px" height="30px" viewBox="0 0 30 30" version="1.1" xmlns="http://www.w3.org/2000/svg" xmlns:xlink="http://www.w3.org/1999/xlink">
    <title>UserProfile</title>
    <g id="VD" stroke="none" stroke-width="1" fill="none" fill-rule="evenodd">
        <g id="Nav_SelfService" transform="translate(-1081.000000, -25.000000)" fill-rule="nonzero">
            <g id="UserProfile" transform="translate(1081.000000, 25.000000)">
                <circle id="Oval" fill="#FF4E02" cx="15" cy="15" r="15"></circle>
                <path d="M18.3641472,13.6937728 C20.6305057,12.2141925 21.2159688,9.25207864 19.672195,7.07996025 C18.1268806,4.90784187 15.0377923,4.34672359 12.7714338,5.82630389 C10.5035345,7.30736082 9.91807142,10.267998 11.4633859,12.4401164 C11.8131231,12.9333099 12.2568425,13.3585784 12.7714338,13.6937728 C12.8962298,13.7808938 12.9239623,13.9492293 12.8330614,14.0688361 C12.7976255,14.1146115 12.7483234,14.1485739 12.6928584,14.1662934 C9.35880007,15.2988664 7.09706362,18.281653 7,21.6705121 C7.00154069,21.785689 7.07703462,21.8875763 7.18950517,21.9274452 C9.89496103,22.6524691 12.6913177,23.0127661 15.5,22.9994764 C18.3086823,23.0157193 21.1065797,22.6539457 23.8104948,21.9274452 C23.9229654,21.8875763 23.9984593,21.785689 24,21.6705121 C23.8967736,18.2831296 21.6365779,15.3047729 18.3071416,14.1662934 C18.1823455,14.0599763 18.1700199,13.8783512 18.2809498,13.7572677 C18.3040602,13.7321651 18.3317926,13.7100157 18.3641472,13.6937728 Z" id="Path" fill="#FFFFFF"></path>
            </g>
        </g>
    </g>
</svg>