<?xml version="1.0" encoding="UTF-8"?>
<svg width="700pt" height="700pt" version="1.1" viewBox="0 0 700 700" xmlns="http://www.w3.org/2000/svg">
<defs>
<style type="text/css">
   
    .fil0 {fill:#ff4d00}
   
  </style>
</defs>
 <path class="fil0" d="m349.99 67.137c-7.6914 0.03125-13.918 6.2578-13.945 13.945v50.148c-0.015625 3.7148 1.4453 7.2812 4.0586 9.9141 2.6172 2.6367 6.1719 4.125 9.8867 4.1406 3.7148-0.007812 7.2773-1.4922 9.8984-4.1289 2.6211-2.6367 4.0859-6.207 4.0742-9.9258v-50.148c-0.03125-7.6992-6.2734-13.93-13.973-13.945zm-109.54 45.363h-0.003907c-3.7266 0.007812-7.3008 1.5039-9.9219 4.1562-5.4297 5.4609-5.4297 14.281 0 19.742l35.465 35.438c5.457 5.4297 14.281 5.4297 19.742 0 5.4258-5.4609 5.4258-14.281 0-19.742l-35.469-35.438c-2.5938-2.625-6.1211-4.1211-9.8125-4.1562zm219.11 0h-0.003907c-3.6914 0.035156-7.2188 1.5312-9.8164 4.1562l-35.465 35.438h0.003907c-5.4297 5.4609-5.4297 14.281 0 19.742 5.457 5.4297 14.281 5.4297 19.738 0l35.465-35.438h0.003907c5.4258-5.4609 5.4258-14.281 0-19.742-2.625-2.6523-6.1992-4.1484-9.9297-4.1562zm-264.8 78.258c-30.398 0.78125-55.07 25.957-55.07 56.52 0 31.047 25.488 56.438 56.547 56.438s56.629-25.391 56.629-56.438-25.57-56.52-56.629-56.52c-0.48438 0-0.99219-0.011718-1.4766 0zm307.67 0c-30.398 0.78125-55.07 25.957-55.07 56.52 0 31.047 25.461 56.438 56.52 56.438s56.547-25.391 56.547-56.438-25.488-56.52-56.547-56.52c-0.48438 0-0.96875-0.011718-1.4492 0zm-152.44 2.9805c-36.098 0-65.816 29.254-65.816 65.215s29.719 65.324 65.816 65.324c36.098 0 65.844-29.363 65.844-65.324s-29.746-65.215-65.844-65.215zm-153.75 25.02c15.953 0 28.602 12.633 28.602 28.52 0 15.887-12.648 28.41-28.602 28.41s-28.547-12.523-28.547-28.41c0-15.887 12.594-28.52 28.547-28.52zm307.64 0c15.953 0 28.52 12.633 28.52 28.52 0 15.887-12.566 28.41-28.52 28.41s-28.52-12.523-28.52-28.41c0-15.887 12.566-28.52 28.52-28.52zm-153.89 2.9805c21.121 0 37.844 16.539 37.844 37.215s-16.723 37.297-37.844 37.297c-21.121 0-37.816-16.621-37.816-37.297s16.695-37.215 37.816-37.215zm-153.86 91.793c-46.328 0-84.137 37.57-84.137 83.809v40.605c-0.03125 7.7305 6.2109 14.023 13.945 14.055h99.828c3.7188-0.007812 7.2812-1.4922 9.9023-4.1289 2.6211-2.6367 4.0859-6.207 4.0742-9.9258-0.03125-7.6992-6.2734-13.93-13.977-13.945h-85.773v-26.66c0-31.152 24.781-55.809 56.137-55.809 18.496 0 34.625 8.668 44.844 22.121 4.668 6.0977 13.379 7.293 19.523 2.6797 2.9648-2.2422 4.9141-5.5703 5.4219-9.2539 0.50781-3.6836-0.46875-7.418-2.7148-10.379-15.344-20.203-39.754-33.168-67.074-33.168zm307.75 0c-27.324 0-51.73 12.965-67.074 33.168h-0.003907c-2.2578 2.9492-3.2539 6.6719-2.7656 10.355 0.48438 3.6797 2.418 7.0195 5.3672 9.2773 2.957 2.25 6.6875 3.2344 10.371 2.7305 3.6836-0.50391 7.0117-2.4492 9.2578-5.4102 10.219-13.453 26.352-22.121 44.844-22.121 31.355 0 56.109 24.656 56.109 55.809v26.66h-85.773c-3.7148-0.015625-7.2812 1.4453-9.918 4.0625-2.6367 2.6133-4.125 6.168-4.1367 9.8828-0.015625 3.7305 1.4609 7.3164 4.0977 9.9531 2.6406 2.6406 6.2227 4.1172 9.957 4.1016h99.75c3.7305 0.015625 7.3125-1.4609 9.9531-4.1016 2.6367-2.6367 4.1133-6.2227 4.0977-9.9531v-40.605c0-46.238-37.809-83.809-84.137-83.809zm-153.89 20.453c-22.711 0-43.633 7.6953-60.266 20.617l-0.027344 0.027344c-6.7617 5.2578-12.828 11.395-17.992 18.211-0.46875 0.62109-0.9375 1.2266-1.3945 1.8594v0.027343c-0.45312 0.63281-0.89844 1.2422-1.3398 1.8867-0.44141 0.64062-0.85938 1.2891-1.2852 1.9414v0.027343c-0.42188 0.64844-0.85156 1.2852-1.2578 1.9414v0.027343c-0.40625 0.65625-0.8125 1.3281-1.2031 1.9961v0.027344c-0.39062 0.66797-0.77734 1.3203-1.1484 1.9961v0.027344c-0.375 0.67969-0.76562 1.3633-1.1211 2.0508v0.027343c-0.35547 0.6875-0.69922 1.3828-1.0391 2.0781v0.027344c-0.33984 0.69922-0.6875 1.3984-1.0117 2.1055v0.027343c-0.32422 0.70703-0.64844 1.3906-0.95703 2.1055v0.027344c-0.30469 0.71484-0.61328 1.4375-0.90234 2.1602v0.027344c-0.28906 0.72266-0.57422 1.457-0.84766 2.1875v0.027344c-0.26953 0.73047-0.56641 1.4727-0.82031 2.2148v0.027344c-0.25391 0.74219-0.50391 1.4648-0.73828 2.2148v0.027344c-0.23828 0.75-0.46484 1.5117-0.68359 2.2695v0.027344c-0.21875 0.75781-0.42969 1.5078-0.62891 2.2695v0.027344c-0.19922 0.76562-0.39453 1.5273-0.57422 2.2969-0.003906 0.015625 0.003906 0.042969 0 0.058593-0.17969 0.76172-0.35938 1.5273-0.51953 2.2969-0.003907 0.015624 0.003906 0.042968 0 0.058593-0.16016 0.76953-0.32422 1.5469-0.46484 2.3242v0.027344c-0.14062 0.78516-0.28516 1.5586-0.41016 2.3516-0.003907 0.015625 0.003906 0.042969 0 0.058594-0.125 0.78125-0.22656 1.5625-0.32812 2.3516-0.003906 0.015626 0.003906 0.042969 0 0.058594-0.20312 1.5977-0.39453 3.2188-0.51953 4.8398v0.027344c-0.054687 0.80859-0.097656 1.6172-0.14062 2.4336v0.058593c-0.042969 0.80469-0.085938 1.6211-0.11328 2.4336v0.027344c-0.015625 0.82031-0.027344 1.6367-0.027344 2.4609v0.058594 48.109c0.007813 0.12891 0.019532 0.25391 0.027344 0.38281 0.035156 1.4805 0.30078 2.9492 0.79297 4.3477 0.011719 0.019531 0.019531 0.039062 0.027344 0.058594 0.27734 0.74609 0.61719 1.4688 1.0156 2.1602 0.007812 0.007812 0.015625 0.019531 0.027344 0.027344 2.4805 4.3203 7.0742 6.9961 12.059 7.0273h167.65-0.003907c7.7109-0.03125 13.945-6.2891 13.945-14v-0.058593-48.102c0-0.81641-0.007813-1.6758-0.027344-2.4883-0.015625-0.8125-0.070312-1.6289-0.11328-2.4336v-0.058594c-0.003906-0.085937-0.027344-0.16406-0.027344-0.25-0.085937-1.5664-0.19531-3.1289-0.35547-4.6758-0.085938-0.79688-0.17188-1.5898-0.27344-2.3789-0.003906-0.015625 0.003906-0.042969 0-0.058594-0.027344-0.22266-0.085938-0.43359-0.11328-0.65625-0.1875-1.3711-0.38281-2.7773-0.62891-4.1289-0.14062-0.77734-0.30469-1.5547-0.46484-2.3242-0.003907-0.015625 0.003906-0.042969 0-0.058594-0.16016-0.76953-0.34375-1.5352-0.51953-2.2969-0.003907-0.015625 0.003906-0.042969 0-0.058593-0.17969-0.76953-0.375-1.5312-0.57422-2.2969v-0.027343c-0.19922-0.76172-0.41016-1.5117-0.62891-2.2695v-0.027344c-0.21875-0.75781-0.44922-1.5195-0.68359-2.2695v-0.027343c-0.23438-0.74609-0.48438-1.4766-0.73828-2.2148l-0.027344-0.027344c-0.16406-0.47266-0.32031-0.95312-0.49219-1.4219-0.097656-0.26562-0.20312-0.55859-0.30078-0.82031-0.26953-0.73047-0.55859-1.4648-0.84766-2.1875v-0.027344c-0.28906-0.72266-0.59766-1.4453-0.90234-2.1602v-0.027344c-0.30469-0.71484-0.63281-1.3984-0.95703-2.1055v-0.027343c-0.32422-0.70703-0.67188-1.4102-1.0117-2.1055v-0.027344c-0.33984-0.69922-0.68359-1.3906-1.0391-2.0781v-0.027344c-0.35547-0.6875-0.74609-1.375-1.1211-2.0508v-0.027344c-0.375-0.67969-0.75781-1.3281-1.1484-1.9961v-0.027344c-0.39062-0.66797-0.79688-1.3398-1.2031-1.9961v-0.027344c-0.40625-0.65625-0.83594-1.293-1.2578-1.9414v-0.027344c-0.42578-0.65234-0.84375-1.3008-1.2852-1.9414-0.44141-0.64453-0.88672-1.2812-1.3398-1.9141-0.45312-0.63281-0.92578-1.2383-1.3945-1.8594-2.8203-3.7227-5.9219-7.2461-9.2422-10.527-1.1094-1.0938-2.2305-2.1602-3.3906-3.1992-2.3164-2.082-4.7344-4.0508-7.2461-5.9062-0.62891-0.46484-1.2461-0.91797-1.8867-1.3672-15.977-11.238-35.492-17.855-56.52-17.855zm0 28c24.363 0 45.527 11.93 57.969 30.188 0.61719 0.90625 1.2305 1.8516 1.8047 2.7891 0.28516 0.46484 0.57422 0.94922 0.84766 1.4219 0.27344 0.47266 0.55859 0.96875 0.82031 1.4492 0.26172 0.48047 0.54297 0.98828 0.79297 1.4766 0.50391 0.98047 0.99219 2 1.4492 3.0078 0.22656 0.49609 0.46875 1.0234 0.68359 1.5312 0.21484 0.50781 0.42578 1.0469 0.62891 1.5586 0.41016 1.043 0.78516 2.1055 1.1484 3.1719 0.17578 0.51953 0.35547 1.0352 0.51953 1.5586 0.17188 0.54688 0.33594 1.1133 0.49219 1.668 0.15234 0.53516 0.29688 1.0703 0.4375 1.6133v0.027343c0.19141 0.74219 0.38281 1.4922 0.54688 2.2422 0.17969 0.8125 0.34375 1.6406 0.49219 2.4609 0.015625 0.10156 0.042968 0.22656 0.054687 0.32812 0.40234 2.2656 0.69922 4.5781 0.875 6.918 0.042969 0.56641 0.085938 1.1523 0.11328 1.7227v0.027343c0.027344 0.58203 0.070313 1.1914 0.085938 1.7773 0.015625 0.57422 0.027344 1.1719 0.027344 1.75v34.102h-139.54v-34.098c0-0.57812 0.011719-1.2031 0.027344-1.7773 0.027343-1.1953 0.097656-2.375 0.19141-3.5547 0.042969-0.56641 0.085937-1.1328 0.14062-1.6953v-0.058594c0.054688-0.5625 0.125-1.1094 0.19141-1.668 0.003906-0.015625-0.003906-0.042969 0-0.058594 0.070313-0.55859 0.16406-1.1133 0.24609-1.668 0.003906-0.015624-0.003906-0.042968 0-0.058593 0.085938-0.5625 0.20312-1.1094 0.30078-1.668v-0.027344c0.097657-0.55859 0.1875-1.1172 0.30078-1.668v-0.027344c0.11328-0.54297 0.25781-1.1016 0.38281-1.6406 0.25781-1.1133 0.53906-2.2461 0.84766-3.3359 0.61719-2.1719 1.3398-4.3203 2.1602-6.3984 0.20312-0.51172 0.41406-1.0234 0.62891-1.5312v-0.027344c0.21484-0.50781 0.45703-1.0039 0.68359-1.5039v-0.027344c0.45703-1.0078 0.94531-2.0273 1.4492-3.0078 0.25-0.48828 0.53125-0.96875 0.79297-1.4492v-0.027344c0.26172-0.48047 0.54688-0.94922 0.82031-1.4219v-0.027344c0.27344-0.47266 0.5625-0.92969 0.84766-1.3945v-0.027344c0.57422-0.9375 1.1602-1.8828 1.7773-2.7891 12.441-18.258 33.605-30.16 57.969-30.16z"/>
</svg>
