<?xml version="1.0" encoding="UTF-8"?>
<svg width="700pt" height="700pt" version="1.1" viewBox="0 0 700 700" xmlns="http://www.w3.org/2000/svg">
<defs>
	<style type="text/css">
   
		.fil0 {fill:#ff4d00}
   
	</style>
</defs>
 <g>
  <path class="fil0" d="m218.77 245.03c-33.723 0-61.297 27.508-61.297 61.234 0 33.723 27.574 61.234 61.297 61.234 33.723 0 61.234-27.508 61.234-61.234 0-33.723-27.508-61.234-61.234-61.234z"/>
  <path class="fil0" d="m218.77 385c-62.867 0-113.75 50.883-113.75 113.75v17.504c-0.007813 2.3203 0.90625 4.5508 2.5391 6.1992 1.6367 1.6445 3.8594 2.5781 6.1797 2.5859h209.99c2.332 0.007812 4.5742-0.91406 6.2227-2.5625 1.6484-1.6523 2.5703-3.8906 2.5625-6.2227v-17.504c0-62.863-50.879-113.75-113.75-113.75z"/>
  <path class="fil0" d="m462.34 112.48c-4.7852 0.085937-8.6094 4-8.5898 8.7852v71.246l-147.53-0.003906c-4.8086 0.015625-8.7031 3.9102-8.7188 8.7227v87.523-0.003906c0.015626 4.8086 3.9102 8.7031 8.7188 8.7188h147.53v71.246c0 3.5352 2.125 6.7227 5.3906 8.0781 3.2656 1.3594 7.0234 0.61719 9.5312-1.8789l123.76-123.76h-0.003906c3.3945-3.4102 3.3945-8.9219 0-12.336l-123.76-123.76h0.003906c-1.6758-1.6836-3.957-2.6133-6.332-2.582z"/>
  <path class="fil0" d="m218.77 34.969c-2.332-0.011719-4.5703 0.91406-6.2188 2.5625-1.6484 1.6484-2.5742 3.8867-2.5625 6.2188v184.26c2.8672-0.33203 5.7656-0.51172 8.7148-0.51172 2.9727 0 5.8945 0.19922 8.7852 0.52734v-175.55h262.5v59.164l17.5 17.484v-85.383 0.003906c0.015624-4.832-3.8867-8.7656-8.7188-8.7852zm288.71 325.94-17.5 17.5v59.098l-155.26-0.003906c2.9766 5.6016 5.4531 11.477 7.6055 17.516h156.44l-0.003906 0.003906c4.832-0.019531 8.7344-3.9531 8.7188-8.7852z"/>
 </g>
</svg>
