<?xml version="1.0" encoding="UTF-8"?>
<svg width="700pt" height="700pt" version="1.1" viewBox="0 0 700 700" xmlns="http://www.w3.org/2000/svg" xmlns:xlink="http://www.w3.org/1999/xlink">
 <defs>
  <style type="text/css">
   
    .fil0 {fill:#ff4d00}
   
  </style>
 </defs>
 <g>
  <path class="fil0" d="m602 207.2h-504c-7.8398 0-14 6.1602-14 14v117.6c0 7.8398 6.1602 14 14 14h504c7.8398 0 14-6.1602 14-14v-117.6c0-7.8398-6.1602-14-14-14zm-410.48 61.039-35.84 38.078c-1.6797 2.2383-4.4805 3.3594-7.8398 3.3594-2.8008 0-5.6016-1.1211-7.8398-3.3594l-18.48-20.16c-3.9219-4.4805-3.9219-11.199 0.55859-15.121s11.199-3.9219 15.121 0.55859l11.199 11.762 28-29.68c3.9219-4.4805 10.641-4.4805 15.121-0.55859 3.9219 3.9219 4.4805 10.645 0 15.121zm396.48 56.562h-358.4v-89.602h358.96l-0.003906 89.602z"/>
  <path class="fil0" d="m98 168.56h368.48c7.8398 0 14-6.1602 14-14v-117.6c0-7.8398-6.1602-14-14-14h-368.48c-7.8398 0-14 6.1602-14 14v117.04c0 7.8398 6.1602 14.559 14 14.559zm131.04-117.6h223.44v89.602l-223.44-0.003906z"/>
  <path class="fil0" d="m381.36 391.44h-283.36c-7.8398 0-14 6.1602-14 14v117.04c0 7.8398 6.1602 14 14 14h283.36c7.8398 0 14-6.1602 14-14v-117.04c0-7.2812-6.1602-14-14-14zm-14 117.6h-138.32v-89.602h138.32z"/>
 </g>
</svg>
