<?xml version="1.0" encoding="UTF-8"?>
<svg width="700pt" height="700pt" version="1.1" viewBox="0 0 700 700" xmlns="http://www.w3.org/2000/svg">
 <g fill="none" stroke="#ff4d00" stroke-linecap="round" stroke-linejoin="round" stroke-width="2">
  <path transform="matrix(17.5,0,0,17.5,70,0)" d="m13 10c0 1.6569-1.3431 3-3 3s-3-1.3431-3-3 1.3431-3 3-3 3 1.3431 3 3" stroke-miterlimit="1"/>
  <path transform="matrix(17.5,0,0,17.5,70,0)" d="m24 12c0 2.2092-1.7908 4-4 4s-4-1.7908-4-4 1.7908-4 4-4 4 1.7908 4 4" stroke-miterlimit="1"/>
  <path transform="matrix(17.5,0,0,17.5,70,0)" d="m19.985 26h-8.985c0-4.1471 0.05692-7 9-7 2.1609 0 3.8029 0.17299 5.0509 0.49107" stroke-miterlimit="1"/>
  <path transform="matrix(17.5,0,0,17.5,70,0)" d="m8 21h-5c0-2.9621 0.045089-5 7-5 1.4391 0 2.5819 0.089955 3.49 0.25893" stroke-miterlimit="1"/>
  <path transform="matrix(17.5,0,0,17.5,70,0)" d="m27 23v6" stroke-miterlimit="100"/>
  <path transform="matrix(17.5,0,0,17.5,70,0)" d="m24 26h6" stroke-miterlimit="100"/>
 </g>
</svg>
