<svg width="41" height="41" viewBox="0 0 41 41" fill="none" xmlns="http://www.w3.org/2000/svg">
<path d="M4.27796 40.9993H36.7224C39.0798 40.9993 41 39.0809 41 36.7217V7.6956C41 5.33644 39.0798 3.41635 36.7208 3.41635H4.27994C1.92078 3.41635 0.000694275 5.33652 0.000694275 7.6956V36.7217C0.000694275 39.0809 1.91911 40.9993 4.27826 40.9993H4.27796ZM36.7202 6.83285C37.1953 6.83285 37.5831 7.22066 37.5831 7.69567V36.7218C37.5831 37.1968 37.197 37.583 36.7219 37.583H4.27745C3.80242 37.583 3.41632 37.1969 3.41632 36.7218V7.69567C3.41632 7.22064 3.80412 6.83285 4.27913 6.83285H36.7202ZM1.70818 13.6663H39.2908C40.2337 13.6663 40.999 12.901 40.999 11.9581C40.999 11.0152 40.2337 10.2499 39.2908 10.2499H1.70818C0.76358 10.2499 -3.8147e-05 11.0152 -3.8147e-05 11.9581C-3.8147e-05 12.901 0.76358 13.6663 1.70818 13.6663ZM32.4578 8.54136C33.4007 8.54136 34.166 7.77606 34.166 6.83314V1.70821C34.166 0.765299 33.4007 0 32.4578 0C31.5149 0 30.7496 0.765299 30.7496 1.70821V6.83314C30.7496 7.77606 31.5149 8.54136 32.4578 8.54136ZM8.5419 8.54136C9.4865 8.54136 10.2501 7.77606 10.2501 6.83314V1.70821C10.2501 0.765299 9.4865 0 8.5419 0C7.59731 0 6.83369 0.765299 6.83369 1.70821V6.83314C6.83369 7.77606 7.59731 8.54136 8.5419 8.54136Z" fill="#FF4D00"/>
<path d="M29.0416 32.4578C29.0416 33.4013 29.8063 34.1663 30.7498 34.1663C31.6933 34.1663 32.458 33.4013 32.458 32.4578C32.458 31.5143 31.6933 30.7496 30.7498 30.7496C29.8063 30.7496 29.0416 31.5143 29.0416 32.4578Z" fill="#FF4D00"/>
<path d="M29.0416 25.6246C29.0416 26.5681 29.8063 27.3328 30.7498 27.3328C31.6933 27.3328 32.458 26.5681 32.458 25.6246C32.458 24.6811 31.6933 23.9164 30.7498 23.9164C29.8063 23.9164 29.0416 24.6811 29.0416 25.6246Z" fill="#FF4D00"/>
<path d="M23.9166 32.4578C23.9166 33.4013 24.6813 34.1663 25.6248 34.1663C26.5683 34.1663 27.333 33.4013 27.333 32.4578C27.333 31.5143 26.5683 30.7496 25.6248 30.7496C24.6813 30.7496 23.9166 31.5143 23.9166 32.4578Z" fill="#FF4D00"/>
<path d="M23.9166 25.6246C23.9166 26.5681 24.6813 27.3328 25.6248 27.3328C26.5683 27.3328 27.333 26.5681 27.333 25.6246C27.333 24.6811 26.5683 23.9164 25.6248 23.9164C24.6813 23.9164 23.9166 24.6811 23.9166 25.6246Z" fill="#FF4D00"/>
<path d="M23.9166 18.7916C23.9166 19.7351 24.6813 20.4998 25.6248 20.4998C26.5683 20.4998 27.333 19.7351 27.333 18.7916C27.333 17.8481 26.5683 17.0831 25.6248 17.0831C24.6813 17.0831 23.9166 17.8481 23.9166 18.7916Z" fill="#FF4D00"/>
<path d="M13.6666 32.4578C13.6666 33.4013 14.4313 34.1663 15.3748 34.1663C16.3183 34.1663 17.083 33.4013 17.083 32.4578C17.083 31.5143 16.3183 30.7496 15.3748 30.7496C14.4313 30.7496 13.6666 31.5143 13.6666 32.4578Z" fill="#FF4D00"/>
<path d="M13.6666 25.6246C13.6666 26.5681 14.4313 27.3328 15.3748 27.3328C16.3183 27.3328 17.083 26.5681 17.083 25.6246C17.083 24.6811 16.3183 23.9164 15.3748 23.9164C14.4313 23.9164 13.6666 24.6811 13.6666 25.6246Z" fill="#FF4D00"/>
<path d="M13.6666 18.7916C13.6666 19.7351 14.4313 20.4998 15.3748 20.4998C16.3183 20.4998 17.083 19.7351 17.083 18.7916C17.083 17.8481 16.3183 17.0831 15.3748 17.0831C14.4313 17.0831 13.6666 17.8481 13.6666 18.7916Z" fill="#FF4D00"/>
<path d="M8.54207 25.6246C8.54207 26.5681 9.30678 27.3328 10.2503 27.3328C11.1938 27.3328 11.9585 26.5681 11.9585 25.6246C11.9585 24.6811 11.1938 23.9164 10.2503 23.9164C9.30678 23.9164 8.54207 24.6811 8.54207 25.6246Z" fill="#FF4D00"/>
<path d="M8.54207 18.7916C8.54207 19.7351 9.30678 20.4998 10.2503 20.4998C11.1938 20.4998 11.9585 19.7351 11.9585 18.7916C11.9585 17.8481 11.1938 17.0831 10.2503 17.0831C9.30678 17.0831 8.54207 17.8481 8.54207 18.7916Z" fill="#FF4D00"/>
<path d="M18.7921 32.4578C18.7921 33.4013 19.5568 34.1663 20.5003 34.1663C21.4438 34.1663 22.2085 33.4013 22.2085 32.4578C22.2085 31.5143 21.4438 30.7496 20.5003 30.7496C19.5568 30.7496 18.7921 31.5143 18.7921 32.4578Z" fill="#FF4D00"/>
<path d="M18.7921 25.6246C18.7921 26.5681 19.5568 27.3328 20.5003 27.3328C21.4438 27.3328 22.2085 26.5681 22.2085 25.6246C22.2085 24.6811 21.4438 23.9164 20.5003 23.9164C19.5568 23.9164 18.7921 24.6811 18.7921 25.6246Z" fill="#FF4D00"/>
<path d="M18.7921 18.7916C18.7921 19.7351 19.5568 20.4998 20.5003 20.4998C21.4438 20.4998 22.2085 19.7351 22.2085 18.7916C22.2085 17.8481 21.4438 17.0831 20.5003 17.0831C19.5568 17.0831 18.7921 17.8481 18.7921 18.7916Z" fill="#FF4D00"/>
</svg>
