<svg width="29" height="43" viewBox="0 0 29 43" fill="none" xmlns="http://www.w3.org/2000/svg">
<path fill-rule="evenodd" clip-rule="evenodd" d="M5.12606 3.3993C7.7453 1.20515 11.0673 0.000599889 14.5003 0L14.5005 0.000230357C17.9319 0.00115179 21.2517 1.20423 23.87 3.39623C26.4883 5.58793 28.2357 8.62671 28.8014 11.9717C29.3673 15.3173 28.7149 18.7525 26.9604 21.6674L14.5001 43L2.04898 21.682C0.289667 18.7679 -0.366653 15.3309 0.196514 11.9832C0.759993 8.63538 2.50682 5.59369 5.12606 3.3993ZM11.0697 17.7247C11.9794 18.6242 13.2135 19.1296 14.5003 19.1296C15.7875 19.1299 17.0218 18.6248 17.9318 17.725C18.8421 16.8254 19.3531 15.6052 19.3531 14.3332C19.3527 13.0611 18.8418 11.841 17.9318 10.9418C17.0218 10.0422 15.7877 9.5368 14.5009 9.5368C13.2141 9.5368 11.98 10.0422 11.07 10.9418C10.16 11.841 9.64876 13.0611 9.64876 14.3332C9.64876 15.605 10.1597 16.8251 11.0697 17.7247Z" fill="#FF4D00"/>
</svg>
