<?xml version="1.0" standalone="no"?>
<!DOCTYPE svg PUBLIC "-//W3C//DTD SVG 20010904//EN"
 "http://www.w3.org/TR/2001/REC-SVG-20010904/DTD/svg10.dtd">
<svg version="1.0" xmlns="http://www.w3.org/2000/svg"
 width="500.000000pt" height="500.000000pt" viewBox="0 0 500.000000 500.000000"
 preserveAspectRatio="xMidYMid meet">
<metadata>
Created by potrace 1.16, written by Peter Selinger 2001-2019
</metadata>
<g transform="translate(0.000000,500.000000) scale(0.100000,-0.100000)"
fill="#000000" stroke="none">
<path d="M1243 4715 c-156 -156 -283 -289 -283 -296 0 -7 426 -439 948 -960
521 -522 947 -953 947 -959 0 -6 -426 -437 -947 -958 -522 -522 -948 -954
-948 -961 0 -14 564 -581 578 -581 11 0 2502 2489 2502 2500 0 13 -2491 2500
-2504 2499 -6 0 -138 -128 -293 -284z"/>
</g>
</svg>
