<?xml version="1.0" standalone="no"?>
<!DOCTYPE svg PUBLIC "-//W3C//DTD SVG 20010904//EN"
 "http://www.w3.org/TR/2001/REC-SVG-20010904/DTD/svg10.dtd">
<svg version="1.0" xmlns="http://www.w3.org/2000/svg"
 width="209.000000pt" height="214.000000pt" viewBox="0 0 209.000000 214.000000"
 preserveAspectRatio="xMidYMid meet">

<g transform="translate(0.000000,214.000000) scale(0.100000,-0.100000)"
fill="#000000" stroke="none">
<path d="M929 1640 c-155 -25 -323 -109 -469 -235 -131 -113 -290 -319 -290
-374 0 -75 230 -343 388 -452 91 -64 219 -124 308 -145 94 -23 286 -24 378 -1
90 23 217 83 310 147 148 103 386 379 386 449 0 72 -197 310 -358 432 -78 59
-241 141 -327 164 -73 19 -249 27 -326 15z m189 -170 c217 -31 382 -221 382
-441 0 -182 -121 -353 -297 -419 -79 -29 -228 -28 -303 3 -121 50 -217 144
-260 256 -109 281 93 590 400 610 8 0 43 -4 78 -9z"/>
<path d="M1011 1200 c-105 -25 -159 -143 -112 -246 29 -65 72 -89 156 -89 82
0 123 22 155 85 37 72 15 174 -46 217 -25 18 -99 45 -114 42 -3 -1 -20 -5 -39
-9z"/>
</g>
</svg>
