<svg version="1.1" viewBox="0 0 96 96" xmlns="http://www.w3.org/2000/svg" xmlns:xlink="http://www.w3.org/1999/xlink" id="Icons_HappyFaceOutline" overflow="hidden"><circle cx="32" cy="42" r="6"/><circle cx="64" cy="42" r="6"/><path d=" M 66.2 61 C 65.5 61 64.9 61.3 64.6 61.8 C 60.8 66.8 54.8 69.9 48 69.9 C 41.2 69.9 35.3 66.8 31.4 61.8 C 31 61.3 30.4 61 29.8 61 C 28.7 61 27.8 61.9 27.8 63 C 27.8 63.4 27.9 63.8 28.2 64.2 C 32.8 70.2 39.9 74 48 74 C 56.1 74 63.2 70.2 67.8 64.2 C 68 63.9 68.2 63.5 68.2 63 C 68.2 61.9 67.3 61 66.2 61 Z"/><g><path d=" M 48 14 C 66.7 14 82 29.3 82 48 C 82 66.7 66.7 82 48 82 C 29.3 82 14 66.7 14 48 C 14 29.3 29.3 14 48 14 M 48 10 C 27 10 10 27 10 48 C 10 69 27 86 48 86 C 69 86 86 69 86 48 C 86 27 69 10 48 10 L 48 10 Z"/></g><g id="Icons_Layer_2"></g><g id="Icons_Layer_3" display="none"></g></svg>