<svg width="38" height="39" viewBox="0 0 38 39" fill="none" xmlns="http://www.w3.org/2000/svg">
<path d="M20.4409 29.8081H4.13356C3.07157 29.8081 2.1994 28.9359 2.1994 27.8739V14.2591H29.2017V20.7063C29.5808 20.6685 29.9221 20.6306 30.3015 20.6306C30.6807 20.6306 31.022 20.6685 31.4014 20.7063V8.3813C31.4014 6.10582 29.5433 4.24745 27.2676 4.24745H23.0201V1.09988C23.0201 0.493023 22.5271 0 21.9202 0C21.3134 0 20.8204 0.493001 20.8204 1.09988V4.24745H10.5808V1.09988C10.5808 0.493023 10.0878 0 9.48096 0C8.8741 0 8.38108 0.493001 8.38108 1.09988V4.24745H4.13363C1.85816 4.24745 0 6.1059 0 8.3813V27.8744C0 30.1499 1.85815 32.0083 4.13385 32.0083H20.5169C20.4412 31.5531 20.4031 31.0601 20.4031 30.5671C20.4031 30.3016 20.4031 30.036 20.4409 29.8086L20.4409 29.8081ZM2.19889 8.381C2.19889 7.31901 3.07106 6.44685 4.13305 6.44685H8.3805V7.96369C8.3805 8.57054 8.8735 9.06357 9.48038 9.06357C10.0872 9.06357 10.5803 8.57057 10.5803 7.96369V6.44685H20.7819V7.96369C20.7819 8.57054 21.2749 9.06357 21.8818 9.06357C22.4886 9.06357 22.9817 8.57057 22.9817 7.96369V6.44685H27.2291C28.2911 6.44685 29.1633 7.31901 29.1633 8.381V12.0597L2.19889 12.0594V8.381Z" fill="#FF4D00"/>
<path d="M30.3016 22.868C26.0542 22.868 22.603 26.319 22.603 30.5666C22.603 34.8141 26.054 38.2652 30.3016 38.2652C34.5491 38.2652 38.0002 34.8142 38.0002 30.5666C38.0002 26.3192 34.5489 22.868 30.3016 22.868ZM30.3016 36.066C27.2676 36.066 24.8026 33.601 24.8026 30.567C24.8026 27.533 27.2676 25.068 30.3016 25.068C33.3357 25.068 35.8007 27.533 35.8007 30.567C35.8007 33.601 33.3357 36.066 30.3016 36.066Z" fill="#FF4D00"/>
<path d="M31.743 30.4151L31.4017 30.7564V27.6088C31.4017 27.0019 30.9087 26.5089 30.3018 26.5089C29.6949 26.5089 29.2019 27.0019 29.2019 27.6085V30.7561L28.8606 30.4148C28.4434 29.9975 27.723 29.9975 27.3056 30.4148C26.8884 30.8321 26.8884 31.5525 27.3056 31.9698L29.5054 34.1696C29.695 34.3591 29.9984 34.473 30.3018 34.473C30.6053 34.473 30.8708 34.3591 31.0983 34.1696L33.298 31.9698C33.7153 31.5525 33.7153 30.8321 33.298 30.4148C32.8429 29.9978 32.16 29.9978 31.743 30.4151L31.743 30.4151Z" fill="#FF4D00"/>
</svg>
