<svg width="33" height="32" viewBox="0 0 33 32" fill="none" xmlns="http://www.w3.org/2000/svg">
<g clip-path="url(#clip0_90_4328)">
<path d="M7.20939 18.8967H6.66779C6.09244 18.8967 5.65234 19.3683 5.65234 19.9073C5.65234 20.48 6.12618 20.9179 6.66779 20.9179H7.20939C7.78474 20.9179 8.22483 20.4464 8.22483 19.9073C8.22459 19.3683 7.78475 18.8967 7.20939 18.8967Z" fill="#FF4D00"/>
<path d="M7.20939 13.7431H6.66779C6.09244 13.7431 5.65234 14.2147 5.65234 14.7537C5.65234 15.2927 6.12618 15.7643 6.66779 15.7643H7.20939C7.78474 15.7643 8.22483 15.2927 8.22483 14.7537C8.22459 14.2148 7.78475 13.7431 7.20939 13.7431Z" fill="#FF4D00"/>
<path d="M7.20939 24.0842H6.66779C6.09244 24.0842 5.65234 24.5558 5.65234 25.0948C5.65234 25.6674 6.12618 26.1054 6.66779 26.1054H7.20939C7.78474 26.1054 8.22483 25.6338 8.22483 25.0948C8.22459 24.5558 7.78475 24.0842 7.20939 24.0842Z" fill="#FF4D00"/>
<path d="M19.1229 19.9412C19.1229 19.3685 18.6491 18.9305 18.1075 18.9305H10.6952C10.1198 18.9305 9.67969 19.4021 9.67969 19.9412C9.67969 20.5137 10.1535 20.9517 10.6952 20.9517H18.1075C18.6828 20.9517 19.1227 20.5137 19.1227 19.9412H19.1229Z" fill="#FF4D00"/>
<path d="M18.1075 13.7431H10.6952C10.1198 13.7431 9.67969 14.2147 9.67969 14.7537C9.67969 15.2927 10.1535 15.7643 10.6952 15.7643L18.1075 15.7641C18.6828 15.7641 19.1229 15.2925 19.1229 14.7535C19.1227 14.2148 18.6828 13.7432 18.1075 13.7432V13.7431Z" fill="#FF4D00"/>
<path d="M9.68018 25.0947C9.68018 25.6674 10.154 26.1053 10.6956 26.1053H15.8063L16.2802 24.0506H10.6956C10.1203 24.0842 9.68026 24.5222 9.68026 25.0947H9.68018Z" fill="#FF4D00"/>
<path d="M22.6772 28.6316C22.6772 28.9685 22.4064 29.2716 22.034 29.2716H2.70787C2.33556 29.2716 2.06474 28.9685 2.06474 28.6316V3.3684C2.06474 2.99785 2.33553 2.72833 2.70787 2.72833H14.7909V7.91558C14.7909 9.39779 15.9757 10.5765 17.4647 10.5765H22.6769V16.8754L24.7415 14.8207V10.2737C24.7415 9.56621 24.4707 8.89261 23.9631 8.38746L17.0246 1.4822C16.517 0.977027 15.8399 0.70752 15.1293 0.70752H2.70776C1.21847 0.70752 0 1.88658 0 3.36845V28.6316C0 30.0799 1.21847 31.2925 2.70776 31.2925H22.0678C23.5571 31.2925 24.7415 30.0799 24.7415 28.6316V25.3978L22.6769 27.4525L22.6772 28.6316ZM16.8556 4.17682L21.2557 8.55585L17.4988 8.55559C17.1265 8.55559 16.8556 8.25248 16.8556 7.91553V4.17682Z" fill="#FF4D00"/>
<path d="M20.0327 21.929L26.7101 15.2836L29.5819 18.1417L22.9046 24.7871L20.0327 21.929Z" fill="#FF4D00"/>
<path d="M18.1754 27.3853L20.7817 26.779C20.8832 26.7454 20.9847 26.7117 21.0862 26.6106L21.8308 25.8696L18.9538 23.0062L18.2092 23.7473C18.1414 23.8147 18.0739 23.9158 18.0399 24.0504L17.4308 26.6441C17.3633 27.0819 17.7356 27.4862 18.1754 27.3852V27.3853Z" fill="#FF4D00"/>
<path d="M31.9846 14.9558L29.9537 12.9347C29.7167 12.6987 29.3446 12.6987 29.0738 12.9347L27.7876 14.2147L30.6646 17.078L31.9508 15.7979C32.2216 15.562 32.2216 15.1915 31.9846 14.9558Z" fill="#FF4D00"/>
</g>
<defs>
<clipPath id="clip0_90_4328">
<rect width="33" height="32" fill="white"/>
</clipPath>
</defs>
</svg>
