<svg width="29" height="29" viewBox="0 0 29 29" fill="none" xmlns="http://www.w3.org/2000/svg">
<path d="M27.0203 0.000318406H19.1038C18.6304 0.000318406 18.2467 0.384016 18.2467 0.857401V2.93846C18.2467 3.16589 18.3372 3.38365 18.4978 3.54447C18.6586 3.70529 18.8766 3.79552 19.1038 3.79552H22.4501L7.80049 18.4451C7.63596 18.6062 7.54346 18.8268 7.54346 19.057C7.54346 19.2876 7.63596 19.5082 7.80049 19.6693L9.26952 21.1383C9.43063 21.3029 9.65123 21.3954 9.88179 21.3954C10.1121 21.3954 10.3327 21.3029 10.4938 21.1383L25.1433 6.4888V9.83508V9.8348C25.1433 10.3082 25.527 10.6919 26.0004 10.6919H28.0815C28.3089 10.6919 28.5267 10.6014 28.6875 10.4408C28.8483 10.28 28.9386 10.062 28.9386 9.83482V1.91836C28.9497 1.40628 28.7513 0.911892 28.3892 0.549807C28.0271 0.187722 27.5327 -0.0106561 27.0206 0.000441825L27.0203 0.000318406Z" fill="#FF4D00"/>
<path d="M22.6946 15.5885H20.6543C20.1809 15.5885 19.7972 15.9722 19.7972 16.4453V24.933H4.00504V9.18171H12.4928C12.7274 9.18199 12.9517 9.08606 13.1136 8.91642C13.2756 8.74677 13.3607 8.51821 13.3496 8.28394V6.24362C13.3496 6.01647 13.2593 5.79843 13.0985 5.6379C12.938 5.47707 12.72 5.38684 12.4928 5.38684H2.12793C1.63009 5.38684 1.15273 5.58466 0.800627 5.93649C0.448524 6.28859 0.250977 6.76595 0.250977 7.26379V26.8101C0.250977 27.3079 0.448517 27.7853 0.800627 28.1374C1.15274 28.4895 1.63009 28.687 2.12793 28.687H21.6743C22.1721 28.687 22.6495 28.4895 23.0016 28.1374C23.3534 27.7853 23.5512 27.3079 23.5512 26.8101V16.4452C23.5512 15.9722 23.1675 15.5885 22.6944 15.5885L22.6946 15.5885Z" fill="#FF4D00"/>
</svg>
