<?xml version="1.0" encoding="UTF-8"?>
<svg width="32px" height="32px" viewBox="0 0 32 32" version="1.1" xmlns="http://www.w3.org/2000/svg" xmlns:xlink="http://www.w3.org/1999/xlink">
    <!-- Generator: Sketch 55.2 (78181) - https://sketchapp.com -->
    <title>footer-social-twitter</title>
    <desc>Created with Sketch.</desc>
    <defs>
        <path d="M16,0 C24.837,0 32,7.1634 32,16 C32,24.8366 24.837,32 16,32 C7.163,32 0,24.8366 0,16 C0,7.1634 7.163,0 16,0 Z" id="path-1"></path>
        <path d="M24,11.0982 C23.561,11.7817 23.005,12.3814 22.363,12.8621 C22.369,13.0074 22.372,13.1556 22.372,13.3038 C22.372,17.8077 19.07,23 13.032,23 C11.179,23 9.453,22.4354 8,21.4701 C8.256,21.5013 8.518,21.5169 8.783,21.5169 C10.321,21.5169 11.737,20.9718 12.86,20.0572 C11.423,20.0309 10.212,19.0451 9.794,17.6917 C9.994,17.7316 10.2,17.7521 10.412,17.7521 C10.711,17.7521 11.001,17.7121 11.277,17.6322 C9.774,17.3202 8.642,15.9424 8.642,14.2906 L8.642,14.2486 C9.086,14.5022 9.593,14.6572 10.13,14.6738 C9.249,14.0624 8.67,13.0191 8.67,11.8373 C8.67,11.2132 8.831,10.6272 9.114,10.1221 C10.734,12.1863 13.152,13.5417 15.88,13.6841 C15.824,13.4345 15.796,13.1751 15.796,12.9079 C15.796,11.026 17.265,9.5 19.077,9.5 C20.022,9.5 20.876,9.9134 21.473,10.5755 C22.222,10.4234 22.924,10.1397 23.559,9.7496 C23.313,10.5453 22.793,11.2132 22.115,11.6345 C22.779,11.5525 23.412,11.3692 24,11.0982 Z" id="path-3"></path>
    </defs>
    <g id="footer-social-twitter" stroke="none" stroke-width="1" fill="none" fill-rule="evenodd">
        <mask id="mask-2" fill="white">
            <use xlink:href="#path-1"></use>
        </mask>
        <g id="Clip-42"></g>
        <mask id="mask-4" fill="white">
            <use xlink:href="#path-3"></use>
        </mask>
        <g id="Clip-45"></g>
        <polygon id="Fill-44" fill="#999999" mask="url(#mask-4)" points="3 3 29 3 29 29 3 29"></polygon>
    </g>
</svg>