<?xml version="1.0" encoding="UTF-8"?>
<svg width="32px" height="32px" viewBox="0 0 32 32" version="1.1" xmlns="http://www.w3.org/2000/svg" xmlns:xlink="http://www.w3.org/1999/xlink">
    <!-- Generator: Sketch 55.2 (78181) - https://sketchapp.com -->
    <title>footer-social-instagram</title>
    <desc>Created with Sketch.</desc>
    <defs>
        <path d="M16,0 C24.837,0 32,7.1634 32,16 C32,24.8366 24.837,32 16,32 C7.163,32 0,24.8366 0,16 C0,7.1634 7.163,0 16,0 Z" id="path-1"></path>
        <path d="M16,8 C18.173,8 18.445,8.0092 19.298,8.0481 C20.15,8.087 20.731,8.2222 21.24,8.42 C21.766,8.6244 22.213,8.898 22.657,9.3427 C23.102,9.7875 23.376,10.2336 23.58,10.7597 C23.778,11.2686 23.913,11.8501 23.952,12.7016 C23.991,13.5549 24,13.8273 24,16 C24,18.1727 23.991,18.4451 23.952,19.2984 C23.913,20.1499 23.778,20.7314 23.58,21.2403 C23.376,21.7664 23.102,22.2125 22.657,22.6573 C22.213,23.102 21.766,23.3756 21.24,23.58 C20.731,23.7778 20.15,23.913 19.298,23.9519 C18.445,23.9908 18.173,24 16,24 C13.827,24 13.555,23.9908 12.702,23.9519 C11.85,23.913 11.269,23.7778 10.76,23.58 C10.234,23.3756 9.787,23.102 9.343,22.6573 C8.898,22.2125 8.624,21.7664 8.42,21.2403 C8.222,20.7314 8.087,20.1499 8.048,19.2984 C8.009,18.4451 8,18.1727 8,16 C8,13.8273 8.009,13.5549 8.048,12.7016 C8.087,11.8501 8.222,11.2686 8.42,10.7597 C8.624,10.2336 8.898,9.7875 9.343,9.3427 C9.787,8.898 10.234,8.6244 10.76,8.42 C11.269,8.2222 11.85,8.087 12.702,8.0481 C13.555,8.0092 13.827,8 16,8 Z M16,9.4414 C13.864,9.4414 13.611,9.4496 12.767,9.4881 C11.987,9.5237 11.564,9.654 11.282,9.7635 C10.908,9.9087 10.642,10.082 10.362,10.362 C10.082,10.6419 9.909,10.9084 9.764,11.2818 C9.654,11.5637 9.524,11.9873 9.488,12.7673 C9.45,13.6109 9.441,13.8639 9.441,16 C9.441,18.1361 9.45,18.3891 9.488,19.2327 C9.524,20.0127 9.654,20.4363 9.764,20.7182 C9.909,21.0916 10.082,21.3581 10.362,21.638 C10.642,21.918 10.908,22.0913 11.282,22.2365 C11.564,22.346 11.987,22.4763 12.767,22.5119 C13.611,22.5504 13.864,22.5586 16,22.5586 C18.136,22.5586 18.389,22.5504 19.233,22.5119 C20.013,22.4763 20.436,22.346 20.718,22.2365 C21.092,22.0913 21.358,21.918 21.638,21.638 C21.918,21.3581 22.091,21.0916 22.236,20.7182 C22.346,20.4363 22.476,20.0127 22.512,19.2327 C22.55,18.3891 22.559,18.1361 22.559,16 C22.559,13.8639 22.55,13.6109 22.512,12.7673 C22.476,11.9873 22.346,11.5637 22.236,11.2818 C22.091,10.9084 21.918,10.6419 21.638,10.362 C21.358,10.082 21.092,9.9087 20.718,9.7635 C20.436,9.654 20.013,9.5237 19.233,9.4881 C18.389,9.4496 18.136,9.4414 16,9.4414 Z M16,11.8919 C18.269,11.8919 20.108,13.7311 20.108,16 C20.108,18.2689 18.269,20.1081 16,20.1081 C13.731,20.1081 11.892,18.2689 11.892,16 C11.892,13.7311 13.731,11.8919 16,11.8919 Z M16,18.6667 C17.473,18.6667 18.667,17.4728 18.667,16 C18.667,14.5272 17.473,13.3333 16,13.3333 C14.527,13.3333 13.333,14.5272 13.333,16 C13.333,17.4728 14.527,18.6667 16,18.6667 Z M21.23,11.7296 C21.23,12.2598 20.801,12.6896 20.27,12.6896 C19.74,12.6896 19.31,12.2598 19.31,11.7296 C19.31,11.1994 19.74,10.7696 20.27,10.7696 C20.801,10.7696 21.23,11.1994 21.23,11.7296 Z" id="path-3"></path>
    </defs>
    <g id="footer-social-instagram" stroke="none" stroke-width="1" fill="none" fill-rule="evenodd">
        <mask id="mask-2" fill="white">
            <use xlink:href="#path-1"></use>
        </mask>
        <g id="Clip-18"></g>
        <mask id="mask-4" fill="white">
            <use xlink:href="#path-3"></use>
        </mask>
        <g id="Clip-21"></g>
        <polygon id="Fill-20" fill="#999999" mask="url(#mask-4)" points="3 3 29 3 29 29 3 29"></polygon>
    </g>
</svg>